<svg width="803" height="619" viewBox="0 0 803 619" fill="none" xmlns="http://www.w3.org/2000/svg">
<path d="M738.29 552.383H106.221C98.1426 556.011 91.4867 560.554 97.3755 564.181C109.091 571.411 186.969 559.353 169.303 588.273C151.637 617.193 345.893 581.848 366.763 582.652C387.634 583.457 402.888 599.675 434.992 599.675C467.096 599.675 469.731 578.901 490.49 578.901C511.249 578.901 658.741 604.082 721.465 578.901C749.139 567.796 748.1 558.883 738.29 552.383Z" fill="#858585"/>
<path opacity="0.6" d="M738.29 552.383H106.221C98.1426 556.011 91.4867 560.554 97.3755 564.181C109.091 571.411 186.969 559.353 169.303 588.273C151.637 617.193 345.893 581.848 366.763 582.652C387.634 583.457 402.888 599.675 434.992 599.675C467.096 599.675 469.731 578.901 490.49 578.901C511.249 578.901 658.741 604.082 721.465 578.901C749.139 567.796 748.1 558.883 738.29 552.383Z" fill="white"/>
<path d="M89.0248 552.383H742.867" stroke="#263238" stroke-width="0.75" stroke-linecap="round" stroke-linejoin="round"/>
<path d="M432.926 505.946C432.926 505.946 392.385 482.486 397.791 475.961C403.197 469.437 421.779 487.685 421.779 487.685C421.779 487.685 385.964 442.721 392.385 438.165C398.805 433.609 417.041 463.346 417.041 463.346C417.041 463.346 395.082 413.752 403.531 412.353C411.981 410.954 425.491 455.225 425.491 455.225C425.491 455.225 419.75 423.792 425.491 423.111C431.231 422.43 435.289 472.916 435.289 472.916C435.289 472.916 435.004 449.159 440.039 449.32C445.075 449.481 447.116 502.628 432.926 505.946Z" fill="#7BD0FF"/>
<path opacity="0.4" d="M432.926 505.946C432.926 505.946 392.385 482.486 397.791 475.961C403.197 469.437 421.779 487.685 421.779 487.685C421.779 487.685 385.964 442.721 392.385 438.165C398.805 433.609 417.041 463.346 417.041 463.346C417.041 463.346 395.082 413.752 403.531 412.353C411.981 410.954 425.491 455.225 425.491 455.225C425.491 455.225 419.75 423.792 425.491 423.111C431.231 422.43 435.289 472.916 435.289 472.916C435.289 472.916 435.004 449.159 440.039 449.32C445.075 449.481 447.116 502.628 432.926 505.946Z" fill="white"/>
<path d="M439.272 503.965C439.272 503.965 471.438 485.395 467.108 480.22C462.778 475.045 448.105 489.518 448.105 489.518C448.105 489.518 476.473 453.9 471.389 450.285C466.304 446.67 451.854 470.23 451.854 470.23C451.854 470.23 469.248 430.96 462.555 429.846C455.862 428.732 445.161 463.804 445.161 463.804C445.161 463.804 449.714 438.908 445.161 438.376C440.608 437.843 437.404 477.868 437.404 477.868C437.404 477.868 437.627 459.063 433.693 459.187C429.759 459.31 428.051 501.291 439.272 503.965Z" fill="#7BD0FF"/>
<path opacity="0.2" d="M439.272 503.965C439.272 503.965 471.438 485.395 467.108 480.22C462.778 475.045 448.105 489.518 448.105 489.518C448.105 489.518 476.473 453.9 471.389 450.285C466.304 446.67 451.854 470.23 451.854 470.23C451.854 470.23 469.248 430.96 462.555 429.846C455.862 428.732 445.161 463.804 445.161 463.804C445.161 463.804 449.714 438.908 445.161 438.376C440.608 437.843 437.404 477.868 437.404 477.868C437.404 477.868 437.627 459.063 433.693 459.187C429.759 459.31 428.051 501.291 439.272 503.965Z" fill="black"/>
<path d="M404.657 497.676V500.152C404.661 501.189 404.997 502.197 405.616 503.028C406.235 503.86 407.104 504.47 408.096 504.77L411.808 543.754C412.038 546.225 413.179 548.522 415.009 550.197C416.838 551.872 419.225 552.806 421.705 552.817H448.848C451.327 552.803 453.712 551.868 455.541 550.194C457.37 548.519 458.512 546.224 458.745 543.754L462.456 504.77C463.452 504.474 464.325 503.865 464.947 503.033C465.569 502.201 465.906 501.191 465.908 500.152V497.676H404.657Z" fill="#263238"/>
<path d="M408.715 511.294C409.336 511.386 409.97 511.333 410.567 511.137C411.164 510.941 411.708 510.609 412.154 510.167L415.346 506.961C416.099 506.213 417.118 505.793 418.179 505.793C419.24 505.793 420.259 506.213 421.012 506.961L424.204 510.167C424.957 510.916 425.975 511.336 427.037 511.336C428.098 511.336 429.117 510.916 429.87 510.167L433.087 506.961C433.838 506.213 434.854 505.794 435.913 505.794C436.973 505.794 437.989 506.213 438.74 506.961L441.945 510.167C442.696 510.915 443.712 511.335 444.771 511.335C445.831 511.335 446.847 510.915 447.598 510.167L450.815 506.961C451.568 506.213 452.586 505.793 453.648 505.793C454.709 505.793 455.728 506.213 456.481 506.961L459.673 510.167C460.257 510.767 461.022 511.159 461.85 511.282" stroke="#7F7F7F" stroke-width="0.75" stroke-linecap="round" stroke-linejoin="round"/>
<path d="M541.535 140.253H305.933C299.271 140.253 293.871 145.657 293.871 152.324V388.088C293.871 394.755 299.271 400.159 305.933 400.159H541.535C548.196 400.159 553.597 394.755 553.597 388.088V152.324C553.597 145.657 548.196 140.253 541.535 140.253Z" fill="#263238"/>
<path opacity="0.8" d="M541.535 140.253H305.933C299.271 140.253 293.871 145.657 293.871 152.324V388.088C293.871 394.755 299.271 400.159 305.933 400.159H541.535C548.196 400.159 553.597 394.755 553.597 388.088V152.324C553.597 145.657 548.196 140.253 541.535 140.253Z" fill="white"/>
<path d="M541.535 140.253H305.933C299.271 140.253 293.871 145.657 293.871 152.324V388.088C293.871 394.755 299.271 400.159 305.933 400.159H541.535C548.196 400.159 553.597 394.755 553.597 388.088V152.324C553.597 145.657 548.196 140.253 541.535 140.253Z" stroke="#263238" stroke-width="0.75" stroke-linecap="round" stroke-linejoin="round"/>
<path d="M535.04 171.475H312.428C305.766 171.475 300.366 176.88 300.366 183.546V381.589C300.366 388.255 305.766 393.659 312.428 393.659H535.04C541.701 393.659 547.102 388.255 547.102 381.589V183.546C547.102 176.88 541.701 171.475 535.04 171.475Z" fill="#263238"/>
<path d="M535.04 171.475H312.428C305.766 171.475 300.366 176.88 300.366 183.546V381.589C300.366 388.255 305.766 393.659 312.428 393.659H535.04C541.701 393.659 547.102 388.255 547.102 381.589V183.546C547.102 176.88 541.701 171.475 535.04 171.475Z" stroke="#263238" stroke-width="0.75" stroke-linecap="round" stroke-linejoin="round"/>
<path d="M544.516 150.169H535.374C533.946 150.169 532.788 151.328 532.788 152.757V161.906C532.788 163.335 533.946 164.493 535.374 164.493H544.516C545.944 164.493 547.102 163.335 547.102 161.906V152.757C547.102 151.328 545.944 150.169 544.516 150.169Z" fill="#7BD0FF"/>
<path opacity="0.3" d="M544.516 150.169H535.374C533.946 150.169 532.788 151.328 532.788 152.757V161.906C532.788 163.335 533.946 164.493 535.374 164.493H544.516C545.944 164.493 547.102 163.335 547.102 161.906V152.757C547.102 151.328 545.944 150.169 544.516 150.169Z" fill="black"/>
<path d="M544.516 150.169H535.374C533.946 150.169 532.788 151.328 532.788 152.757V161.906C532.788 163.335 533.946 164.493 535.374 164.493H544.516C545.944 164.493 547.102 163.335 547.102 161.906V152.757C547.102 151.328 545.944 150.169 544.516 150.169Z" stroke="#263238" stroke-width="0.75" stroke-linecap="round" stroke-linejoin="round"/>
<path d="M526.899 150.169H517.757C516.329 150.169 515.171 151.328 515.171 152.757V161.906C515.171 163.335 516.329 164.493 517.757 164.493H526.899C528.327 164.493 529.485 163.335 529.485 161.906V152.757C529.485 151.328 528.327 150.169 526.899 150.169Z" fill="#7BD0FF" stroke="#263238" stroke-width="0.75" stroke-linecap="round" stroke-linejoin="round"/>
<path d="M509.27 150.169H500.127C498.699 150.169 497.542 151.328 497.542 152.757V161.906C497.542 163.335 498.699 164.493 500.127 164.493H509.27C510.698 164.493 511.855 163.335 511.855 161.906V152.757C511.855 151.328 510.698 150.169 509.27 150.169Z" fill="#7BD0FF"/>
<path opacity="0.7" d="M509.27 150.169H500.127C498.699 150.169 497.542 151.328 497.542 152.757V161.906C497.542 163.335 498.699 164.493 500.127 164.493H509.27C510.698 164.493 511.855 163.335 511.855 161.906V152.757C511.855 151.328 510.698 150.169 509.27 150.169Z" fill="white"/>
<path d="M509.27 150.169H500.127C498.699 150.169 497.542 151.328 497.542 152.757V161.906C497.542 163.335 498.699 164.493 500.127 164.493H509.27C510.698 164.493 511.855 163.335 511.855 161.906V152.757C511.855 151.328 510.698 150.169 509.27 150.169Z" stroke="#263238" stroke-width="0.75" stroke-linecap="round" stroke-linejoin="round"/>
<path d="M300.91 159.912V153.846C300.91 153.117 301.2 152.418 301.715 151.903C302.23 151.387 302.928 151.098 303.657 151.098C304.385 151.098 305.084 151.387 305.599 151.903C306.114 152.418 306.403 153.117 306.403 153.846V159.912C306.403 160.641 306.114 161.34 305.599 161.856C305.084 162.371 304.385 162.661 303.657 162.661C302.928 162.661 302.23 162.371 301.715 161.856C301.2 161.34 300.91 160.641 300.91 159.912ZM304.622 160.024V153.735C304.622 152.905 304.251 152.596 303.681 152.596C303.112 152.596 302.741 152.905 302.741 153.735V160.024C302.741 160.853 303.1 161.163 303.681 161.163C304.263 161.163 304.597 160.853 304.597 160.024H304.622Z" fill="#263238"/>
<path d="M307.628 151.11H310.288C312.106 151.11 312.997 152.113 312.997 153.97V155.097C312.997 156.941 312.106 157.956 310.288 157.956H309.434V162.648H307.628V151.11ZM310.288 156.298C310.869 156.298 311.179 156.038 311.179 155.22V153.846C311.179 153.029 310.869 152.757 310.288 152.757H309.434V156.298H310.288Z" fill="#263238"/>
<path d="M313.987 151.11H318.935V152.757H315.805V155.815H318.28V157.461H315.805V161.002H318.935V162.648H313.987V151.11Z" fill="#263238"/>
<path d="M319.962 151.11H322.239L323.995 158.018V151.11H325.604V162.648H323.748L321.571 154.23V162.648H319.95L319.962 151.11Z" fill="#263238"/>
<path d="M329.315 159.912V159.256H331.035V160.049C331.035 160.866 331.393 161.163 331.975 161.163C332.556 161.163 332.903 160.866 332.903 160.011C332.903 159.157 332.544 158.439 331.356 157.412C329.847 156.075 329.352 155.134 329.352 153.822C329.289 153.445 329.314 153.059 329.424 152.694C329.535 152.329 329.728 151.995 329.989 151.716C330.25 151.438 330.572 151.225 330.929 151.091C331.287 150.958 331.67 150.91 332.049 150.949C333.818 150.949 334.684 152.002 334.684 153.846V154.329H332.977V153.735C332.977 152.905 332.643 152.596 332.074 152.596C331.505 152.596 331.158 152.905 331.158 153.698C331.158 154.49 331.542 155.146 332.73 156.174C334.239 157.511 334.721 158.427 334.721 159.888C334.778 160.269 334.749 160.658 334.635 161.027C334.52 161.395 334.324 161.733 334.062 162.015C333.799 162.297 333.476 162.516 333.117 162.656C332.758 162.795 332.371 162.852 331.987 162.822C330.206 162.809 329.315 161.757 329.315 159.912Z" fill="#263238"/>
<path d="M335.625 159.912V153.846C335.599 153.469 335.652 153.091 335.779 152.734C335.905 152.378 336.104 152.052 336.362 151.776C336.62 151.5 336.932 151.279 337.279 151.129C337.625 150.978 337.999 150.901 338.377 150.901C338.755 150.901 339.129 150.978 339.475 151.129C339.822 151.279 340.134 151.5 340.392 151.776C340.65 152.052 340.849 152.378 340.976 152.734C341.103 153.091 341.155 153.469 341.13 153.846V159.912C341.155 160.29 341.103 160.668 340.976 161.024C340.849 161.38 340.65 161.707 340.392 161.983C340.134 162.259 339.822 162.479 339.475 162.63C339.129 162.78 338.755 162.858 338.377 162.858C337.999 162.858 337.625 162.78 337.279 162.63C336.932 162.479 336.62 162.259 336.362 161.983C336.104 161.707 335.905 161.38 335.779 161.024C335.652 160.668 335.599 160.29 335.625 159.912ZM339.336 160.024V153.735C339.336 152.905 338.977 152.596 338.408 152.596C337.839 152.596 337.468 152.905 337.468 153.735V160.024C337.468 160.853 337.827 161.163 338.408 161.163C338.99 161.163 339.311 160.853 339.311 160.024H339.336Z" fill="#263238"/>
<path d="M342.28 159.912V151.11H344.099V160.049C344.099 160.866 344.445 161.163 345.014 161.163C345.583 161.163 345.942 160.866 345.942 160.049V151.11H347.637V159.912C347.705 160.292 347.683 160.682 347.574 161.051C347.465 161.42 347.271 161.759 347.008 162.04C346.745 162.322 346.42 162.538 346.059 162.671C345.698 162.805 345.31 162.852 344.928 162.809C343.208 162.809 342.28 161.757 342.28 159.912Z" fill="#263238"/>
<path d="M348.973 151.11H351.658C353.526 151.11 354.33 151.989 354.33 153.76V154.478C354.33 155.716 353.959 156.421 353.093 156.743C353.996 157.028 354.33 157.882 354.33 159.219V161.25C354.295 161.725 354.363 162.202 354.528 162.648H352.709C352.555 162.191 352.496 161.706 352.536 161.225V159.12C352.536 158.055 352.227 157.709 351.41 157.709H350.78V162.661H348.973V151.11ZM351.448 156.062C352.128 156.062 352.536 155.753 352.536 154.824V153.933C352.536 153.116 352.264 152.695 351.621 152.695H350.792V156L351.448 156.062Z" fill="#263238"/>
<path d="M355.493 159.974V153.784C355.468 153.419 355.519 153.052 355.641 152.707C355.764 152.361 355.956 152.045 356.206 151.777C356.456 151.509 356.759 151.296 357.095 151.15C357.431 151.004 357.793 150.928 358.159 150.928C358.525 150.928 358.888 151.004 359.224 151.15C359.559 151.296 359.862 151.509 360.112 151.777C360.362 152.045 360.554 152.361 360.677 152.707C360.8 153.052 360.85 153.419 360.825 153.784V155.022H359.118V153.698C359.118 152.93 358.747 152.621 358.215 152.621C357.683 152.621 357.299 152.93 357.299 153.698V160.135C357.299 160.89 357.67 161.188 358.215 161.188C358.759 161.188 359.118 160.89 359.118 160.135V158.377H360.825V159.999C360.85 160.365 360.8 160.732 360.677 161.077C360.554 161.422 360.362 161.739 360.112 162.006C359.862 162.274 359.559 162.488 359.224 162.634C358.888 162.78 358.525 162.855 358.159 162.855C357.793 162.855 357.431 162.78 357.095 162.634C356.759 162.488 356.456 162.274 356.206 162.006C355.956 161.739 355.764 161.422 355.641 161.077C355.519 160.732 355.468 160.365 355.493 159.999V159.974Z" fill="#263238"/>
<path d="M361.914 151.11H366.862V152.757H363.72V155.815H366.194V157.461H363.72V161.002H366.838V162.648H361.889L361.914 151.11Z" fill="#263238"/>
<path d="M622.605 474.476C622.605 474.476 624.671 488.094 624.176 492.613C622.543 507.803 614.761 522.869 611.47 552.383H737.869C737.869 552.383 739.02 498.555 734.059 474.476H622.605Z" fill="#858585" stroke="#263238" stroke-linecap="round" stroke-linejoin="round"/>
<path d="M621.875 482.213C621.875 482.213 618.757 429.276 612.646 378.32C608.934 347.754 602.847 317.473 601.511 294.842C599.668 265.241 635.792 273.462 667.241 272.15C698.689 270.837 729.234 266.752 731.411 294.26C733.589 321.769 736.595 480.468 736.595 480.468C736.595 480.468 676.952 496.438 621.875 482.213Z" fill="#7BD0FF"/>
<g opacity="0.2">
<path opacity="0.2" d="M778.645 387.085L790.423 383.371L781.219 382.567L786.353 374.247C785.116 376.624 781.887 377.293 779.363 376.426C776.839 375.56 774.897 373.566 773.066 371.635C764.666 362.833 756.179 353.907 750.179 343.322C744.178 332.737 740.826 320.097 743.523 308.262L739.23 318.958L732.685 300.673C733.302 303.57 733.154 306.577 732.256 309.399C731.358 312.222 729.741 314.761 727.564 316.767C725.819 318.327 723.667 319.614 722.751 321.806C722.371 322.796 722.289 323.877 722.516 324.913C738.945 412.811 685.526 413.319 666.845 408.478C650.057 404.145 634.679 382.988 634.048 365.866C634.042 365.376 634.166 364.893 634.405 364.465C634.645 364.038 634.993 363.681 635.414 363.43C635.835 363.179 636.314 363.044 636.804 363.037C637.294 363.03 637.777 363.151 638.205 363.39C669.764 380.834 696.833 385.29 687.443 378.073C670.729 374.495 626.229 356.234 618.806 316.433C618.674 315.719 618.397 315.04 617.994 314.436C617.59 313.833 617.068 313.318 616.459 312.923C615.85 312.528 615.168 312.261 614.452 312.139C613.737 312.016 613.004 312.041 612.299 312.211C604.848 329.64 592.765 344.691 577.362 355.727L580.22 362.486C576.805 365.359 570.546 362.722 570.224 358.265L566.673 376.513L558.013 376.241L558.1 376.315C558.636 376.87 559.056 377.527 559.337 378.246L559.869 378.618C560.252 378.902 560.587 379.175 560.921 379.447C563.671 380.133 566.536 380.224 569.324 379.713C572.113 379.203 574.76 378.104 577.09 376.488C583.622 372.044 587.754 364.95 591.824 358.178C595.895 351.406 600.484 344.449 607.338 340.636C615.652 379.723 623.969 418.803 632.291 457.874C633.627 464.176 635.063 470.688 638.848 475.912C646.704 486.732 661.884 488.701 675.245 488.577C695.077 488.396 714.805 485.7 733.96 480.554L732.586 336.736L770.74 384.151C765.148 391.86 759.564 399.577 753.989 407.302C758.035 402.123 763.136 397.866 768.952 394.811C774.769 391.757 781.169 389.976 787.726 389.586C786.559 388.418 785.108 387.573 783.516 387.134C781.924 386.696 780.246 386.679 778.645 387.085Z" fill="black"/>
</g>
<path d="M621.875 482.213C621.875 482.213 618.757 429.276 612.646 378.32C608.934 347.754 602.847 317.473 601.511 294.842C599.668 265.241 635.792 273.462 667.241 272.15C698.689 270.837 729.234 266.752 731.411 294.26C733.589 321.769 736.595 480.468 736.595 480.468C736.595 480.468 676.952 496.438 621.875 482.213Z" stroke="#263238" stroke-width="0.75" stroke-linecap="round" stroke-linejoin="round"/>
<path d="M673.278 552.383C672.131 549.501 670.758 546.715 669.171 544.051C661.451 533.764 662.416 524.999 659.583 515.417C658.717 512.482 652.791 505.228 652.791 505.228" stroke="#263238" stroke-width="0.75" stroke-linecap="round" stroke-linejoin="round"/>
<path d="M750.265 420.97L741.073 431.889L743.906 451.028L757.911 436.284L750.265 420.97Z" fill="white" stroke="#263238" stroke-width="0.75" stroke-linecap="round" stroke-linejoin="round"/>
<path d="M742.756 432.681C742.372 430.824 742.162 426.083 740.368 425.464C737.077 424.325 730.743 430.316 728.739 433.164C727.799 434.513 725.77 437.385 725.795 439.02C725.795 439.861 726.537 441.855 727.353 441.991C728.801 442.214 730.434 438.871 731.547 437.93C733.667 436.525 735.878 435.264 738.166 434.154C738.166 434.154 734.269 439.812 732.685 441.112C730.31 443.055 720.462 448.54 726.722 451.808C726.722 451.808 724.31 455.361 728.083 456.29C731.857 457.218 737.881 452.006 737.881 452.006C736.778 453.541 735.49 454.934 734.046 456.154C731.646 458.295 728.108 457.825 728.949 459.335C730.186 461.675 733.465 461.885 736.892 460.734C738.632 460.261 740.256 459.435 741.665 458.309C743.074 457.183 744.236 455.779 745.082 454.185C748.174 449.047 743.857 437.98 742.756 432.681Z" fill="white" stroke="#1A2E35" stroke-width="0.75" stroke-linecap="round" stroke-linejoin="round"/>
<path d="M729.308 451.028C731.995 449.677 734.59 448.151 737.077 446.46C738.729 445.195 740.091 443.591 741.073 441.756" stroke="#1A2E35" stroke-width="0.75" stroke-linecap="round" stroke-linejoin="round"/>
<path d="M701.67 271.233C701.67 271.233 732.302 273.053 732.129 282.474C732.129 282.474 747.469 289.011 748.286 296.39C749.102 303.768 813.793 373.146 802.584 393.275C792.786 410.855 753.272 443.563 753.272 443.563C753.272 443.563 749.486 435.07 745.218 425.154C745.218 425.154 762.538 387.308 770.493 383.421L728.875 330.546" fill="#7BD0FF"/>
<g opacity="0.2">
<path opacity="0.2" d="M612.856 311.976C605.411 329.412 593.321 344.465 577.907 355.492L580.863 362.251C577.449 365.136 571.189 362.486 570.867 358.042C569.68 364.133 568.496 370.236 567.317 376.352L555.984 375.993C561.527 381.626 571.275 380.784 577.808 376.34C584.34 371.895 588.459 364.789 592.542 358.03C596.624 351.27 601.128 344.251 608.056 340.45C616.369 379.521 624.687 418.597 633.009 457.676C634.345 463.99 635.78 470.502 639.566 475.726C647.409 486.546 662.601 488.515 675.962 488.391C695.795 488.196 715.523 485.492 734.677 480.344C734.182 432.392 733.692 384.444 733.205 336.501L771.297 383.929L752.74 409.667C756.712 403.772 761.991 398.874 768.164 395.355C774.337 391.836 781.239 389.789 788.332 389.376C787.17 388.219 785.729 387.383 784.149 386.949C782.568 386.515 780.902 386.498 779.313 386.9L791.091 383.124L781.887 382.332L787.021 374C785.784 376.377 782.555 377.058 780.031 376.191C777.507 375.324 775.565 373.319 773.721 371.388C765.334 362.585 756.847 353.672 750.847 343.087C744.847 332.502 741.494 319.912 744.166 308.039C742.748 311.605 741.321 315.166 739.886 318.723L733.341 300.45C733.958 303.348 733.809 306.357 732.908 309.179C732.008 312.001 730.387 314.54 728.207 316.544C726.537 318.055 724.496 319.305 723.518 321.335C722.207 324.071 723.246 327.29 724.124 330.199C729.555 348.348 726.982 369.172 715.613 384.312C704.244 399.453 683.769 407.834 665.434 403.08C647.1 398.326 632.848 379.719 634.803 360.877C654.404 368.049 674.956 372.287 695.794 373.455C678.325 369.741 660.746 364.665 646.011 354.538C631.277 344.412 619.623 328.479 618.571 310.639L612.856 311.976Z" fill="black"/>
</g>
<path d="M701.67 271.233C701.67 271.233 732.302 273.053 732.129 282.474C732.129 282.474 747.469 289.011 748.286 296.39C749.102 303.768 813.793 373.146 802.584 393.275C792.786 410.855 753.272 443.563 753.272 443.563C753.272 443.563 749.486 435.07 745.218 425.154C745.218 425.154 762.538 387.308 770.493 383.421L728.875 330.546" stroke="#263238" stroke-width="0.75" stroke-linecap="round" stroke-linejoin="round"/>
<path d="M791.487 381.96C784.67 377.157 774.996 382.208 774.996 379.051C774.996 375.894 786.637 375.609 785.672 372.353" stroke="#263238" stroke-width="0.75" stroke-linecap="round" stroke-linejoin="round"/>
<path d="M738.067 316.569C740.209 310.613 741.302 304.329 741.296 297.999" stroke="#263238" stroke-width="0.75" stroke-linecap="round" stroke-linejoin="round"/>
<path d="M733.094 293.951C733.452 301.143 733.811 311.369 733.49 319.169C733.477 319.553 733.598 319.93 733.83 320.235C734.063 320.541 734.394 320.757 734.767 320.847C735.141 320.937 735.534 320.896 735.88 320.73C736.226 320.564 736.505 320.284 736.669 319.936" stroke="#263238" stroke-width="0.75" stroke-linecap="round" stroke-linejoin="round"/>
<path d="M732.562 285.149C732.562 285.149 732.673 286.684 732.834 289.197" stroke="#263238" stroke-width="0.75" stroke-linecap="round" stroke-linejoin="round"/>
<path d="M592.777 305.786C592.777 305.786 590.946 318.525 592.777 327.624" stroke="#263238" stroke-width="0.75" stroke-linecap="round" stroke-linejoin="round"/>
<path d="M539.258 293.035L532.244 272.83C532.244 272.83 530.054 259.002 528.26 256.266C526.331 253.844 524.136 251.647 521.716 249.717C519.997 247.298 518.059 245.044 515.926 242.982C513.538 240.977 499.534 233.697 498.445 234.242C497.356 234.787 495.624 238.067 504.717 243.156C501.663 242.971 498.602 243.392 495.711 244.394C491.715 246.04 488.981 246.486 490.762 248.219C492.544 249.952 493.942 250.769 500.4 249.036C503.114 249.348 505.848 249.439 508.577 249.308L510.581 251.673C509.709 251.287 508.726 251.231 507.816 251.516C506.906 251.8 506.13 252.406 505.633 253.221C503.814 256.13 501.723 259.77 502.639 261.887C502.639 261.887 495.637 258.247 493.719 261.255C491.801 264.264 497.727 266.987 500.09 268.807C502.453 270.627 508.181 275.542 508.181 275.542C508.181 275.542 512.239 284.74 520.837 288.12C520.837 288.12 524.14 291.945 523.2 295.548L539.258 293.035Z" fill="white" stroke="#263238" stroke-width="0.75" stroke-linecap="round" stroke-linejoin="round"/>
<path d="M509.146 245.632L512.152 248.083L515.505 253.914L517.781 261.552" stroke="#263238" stroke-width="0.75" stroke-linecap="round" stroke-linejoin="round"/>
<path d="M519.699 261.552C519.699 261.552 514.924 267.284 511.534 268.101C510.046 267.485 508.606 266.757 507.229 265.922C506.622 265.39 505.707 264.363 503.864 262.889" stroke="#263238" stroke-width="0.75" stroke-linecap="round" stroke-linejoin="round"/>
<path d="M514.416 261.094L513.983 259.547C512.569 259.853 511.105 259.853 509.69 259.547L508.602 261.094C510.53 260.82 512.488 260.82 514.416 261.094Z" stroke="#263238" stroke-width="0.75" stroke-linecap="round" stroke-linejoin="round"/>
<path d="M509.604 254.632C510.148 255.864 510.366 257.216 510.235 258.556" stroke="#263238" stroke-width="0.75" stroke-linecap="round" stroke-linejoin="round"/>
<path d="M506.783 259.547C507.898 260.504 508.765 261.716 509.312 263.08C509.859 264.445 510.069 265.92 509.925 267.383" stroke="#263238" stroke-width="0.75" stroke-linecap="round" stroke-linejoin="round"/>
<path d="M512.412 253.183L514.416 255.362V257.826" stroke="#263238" stroke-width="0.75" stroke-linecap="round" stroke-linejoin="round"/>
<path d="M614.712 274.465C614.712 274.465 603.107 273.969 595.721 294.842C595.721 294.842 586.987 299.943 569.209 338.766C569.209 338.766 566.154 334.669 559.584 323.44C553.844 313.635 545.085 300.97 537.86 282.437C537.86 282.437 532.033 289.605 519.575 289.197C519.575 289.197 546.582 380.499 565.498 380.499C586.356 380.499 609.318 331.97 609.318 331.97" fill="#7BD0FF"/>
<g opacity="0.2">
<path opacity="0.2" d="M612.856 311.976C605.411 329.412 593.321 344.465 577.907 355.492L580.863 362.251C577.449 365.136 571.189 362.486 570.867 358.042C569.68 364.133 568.496 370.236 567.317 376.352L555.984 375.993C561.527 381.626 571.275 380.784 577.808 376.34C584.34 371.895 588.459 364.789 592.542 358.03C596.624 351.27 601.128 344.251 608.056 340.45C616.369 379.521 624.687 418.597 633.009 457.676C634.345 463.99 635.78 470.502 639.566 475.726C647.409 486.546 662.601 488.515 675.962 488.391C695.795 488.196 715.523 485.492 734.677 480.344C734.182 432.392 733.692 384.444 733.205 336.501L771.297 383.929L752.74 409.667C756.712 403.772 761.991 398.874 768.164 395.355C774.337 391.836 781.239 389.789 788.332 389.376C787.17 388.219 785.729 387.383 784.149 386.949C782.568 386.515 780.902 386.498 779.313 386.9L791.091 383.124L781.887 382.332L787.021 374C785.784 376.377 782.555 377.058 780.031 376.191C777.507 375.324 775.565 373.319 773.721 371.388C765.334 362.585 756.847 353.672 750.847 343.087C744.847 332.502 741.494 319.912 744.166 308.039C742.748 311.605 741.321 315.166 739.886 318.723L733.341 300.45C733.958 303.348 733.809 306.357 732.908 309.179C732.008 312.001 730.387 314.54 728.207 316.544C726.537 318.055 724.496 319.305 723.518 321.335C722.207 324.071 723.246 327.29 724.124 330.199C729.555 348.348 726.982 369.172 715.613 384.312C704.244 399.453 683.769 407.834 665.434 403.08C647.1 398.326 632.848 379.719 634.803 360.877C654.404 368.049 674.956 372.287 695.794 373.455C678.325 369.741 660.746 364.665 646.011 354.538C631.277 344.412 619.623 328.479 618.571 310.639L612.856 311.976Z" fill="black"/>
</g>
<path d="M614.712 274.465C614.712 274.465 603.107 273.969 595.721 294.842C595.721 294.842 586.987 299.943 569.209 338.766C569.209 338.766 566.154 334.669 559.584 323.44C553.844 313.635 545.085 300.97 537.86 282.437C537.86 282.437 532.033 289.605 519.575 289.197C519.575 289.197 546.582 380.499 565.498 380.499C586.356 380.499 609.318 331.97 609.318 331.97" stroke="#263238" stroke-width="0.75" stroke-linecap="round" stroke-linejoin="round"/>
<path d="M601.746 299.435C601.623 297.962 601.524 296.427 601.449 294.842" stroke="#263238" stroke-width="0.75" stroke-linecap="round" stroke-linejoin="round"/>
<path d="M603.726 327.092C607.103 326.721 604.159 319.775 602.365 305.774" stroke="#263238" stroke-width="0.75" stroke-linecap="round" stroke-linejoin="round"/>
<path d="M595.066 301.156C595.066 301.156 597.886 317.646 601.128 324.331" stroke="#263238" stroke-width="0.75" stroke-linecap="round" stroke-linejoin="round"/>
<path d="M672.894 238.724C672.894 238.724 676.074 270.268 683.101 274.068C683.101 274.068 681.975 286.114 661.451 286.114C640.927 286.114 640.914 269.129 640.914 269.129L672.894 238.724Z" fill="white"/>
<path d="M628.53 204.617C628.53 204.617 625.202 224.425 625.747 228.597C626.291 232.769 625.277 237.04 626.118 243.762C626.959 250.485 632.081 269.24 644.304 272.1C650.737 273.598 664.494 267.408 670.21 254.632C670.606 253.778 672.894 243.985 672.894 243.985C672.894 243.985 678.561 247.81 680.379 241.608C682.198 235.406 685.266 229.748 681.332 226.046C677.398 222.345 672.09 230.367 671.348 233.326C670.606 236.285 667.698 232.93 667.698 232.93C667.698 232.93 665.892 219.312 661.624 215.598C657.356 211.884 665.335 204.963 661.278 200.197C657.22 195.431 639.294 196.557 628.53 204.617Z" fill="#263238" stroke="#263238" stroke-width="0.75" stroke-linecap="round" stroke-linejoin="round"/>
<path d="M672.894 238.724C672.894 238.724 676.074 270.268 683.101 274.068C683.101 274.068 681.975 286.114 661.451 286.114C640.927 286.114 640.914 269.129 640.914 269.129L672.894 238.724Z" stroke="#263238" stroke-width="0.75" stroke-linecap="round" stroke-linejoin="round"/>
<path d="M623.78 204.939C623.78 204.939 605.087 203.143 609.194 188.052C613.301 172.961 628.902 171.314 628.902 171.314C628.902 171.314 625.747 182.147 644.267 179.98C662.787 177.814 682.792 176.044 683.608 194.75C685.605 200.605 686.198 206.849 685.339 212.976C684.479 219.103 682.191 224.942 678.659 230.02C666.523 247.352 655.376 233.326 655.376 233.326L645.789 212.651L627.974 208.875L623.78 204.939Z" fill="#263238"/>
<path d="M650.737 194.824C650.737 194.824 672.857 197.387 683.67 194.824C694.482 192.261 697.439 221.565 697.439 221.565L694.817 239.442L665.311 244.53L651.702 232.385L646.073 215.412L650.737 194.824Z" fill="#858585" stroke="#263238" stroke-width="0.75" stroke-miterlimit="10"/>
<path d="M623.78 204.939C623.78 204.939 605.087 203.143 609.194 188.052C613.301 172.961 628.902 171.314 628.902 171.314C628.902 171.314 625.747 182.147 644.267 179.98C662.787 177.814 682.792 176.044 683.608 194.75C685.605 200.605 686.198 206.849 685.339 212.976C684.479 219.103 682.191 224.942 678.659 230.02C666.523 247.352 655.376 233.326 655.376 233.326L645.789 212.651L627.974 208.875L623.78 204.939Z" stroke="#263238" stroke-width="0.75" stroke-miterlimit="10"/>
<path d="M621.046 202.5C621.046 202.5 616.778 222.493 617.334 226.554C617.891 230.615 616.604 235.047 617.433 241.769C618.262 248.491 621.145 273.709 635.706 271.766C650.007 269.872 669.678 258.148 671.422 246.523C671.571 245.582 672.424 242.809 672.424 242.809C674.099 243.314 675.906 243.134 677.448 242.307C678.991 241.481 680.143 240.077 680.651 238.402C682.903 232.137 686.602 226.393 682.099 222.766C677.41 218.977 671.237 227.297 670.309 230.293C669.381 233.289 666.078 229.971 666.078 229.971C666.078 229.971 664.271 216.353 659.385 212.775C654.498 209.197 663.913 202.017 659.311 197.337C654.708 192.658 633.788 194.193 621.046 202.5Z" fill="white" stroke="#263238" stroke-width="0.75" stroke-linecap="round" stroke-linejoin="round"/>
<path d="M628.555 226.306C628.555 230.02 621.627 236.408 622.444 239.689C622.889 241.484 627.553 242.363 628.518 243.948C628.758 244.416 628.889 244.932 628.902 245.458" fill="white"/>
<path d="M628.555 226.306C628.555 230.02 621.627 236.408 622.444 239.689C622.889 241.484 627.553 242.363 628.518 243.948C628.758 244.416 628.889 244.932 628.902 245.458" stroke="#263238" stroke-width="0.75" stroke-linecap="round" stroke-linejoin="round"/>
<path d="M621.936 228.485C621.838 229.921 621.182 231.036 620.464 230.961C619.747 230.887 619.227 229.723 619.363 228.275C619.499 226.826 620.13 225.725 620.835 225.799C621.541 225.873 622.035 227.049 621.936 228.485Z" fill="#263238"/>
<path d="M638.081 226.133C637.97 227.631 637.277 228.795 636.535 228.745C635.792 228.696 635.298 227.433 635.384 225.935C635.471 224.437 636.188 223.273 636.931 223.323C637.673 223.372 638.18 224.635 638.081 226.133Z" fill="#263238"/>
<path d="M630.77 219.51C630.77 219.51 636.955 214.558 645.145 219.819" stroke="#263238" stroke-width="0.75" stroke-linecap="round" stroke-linejoin="round"/>
<path d="M648.349 248.566C648.349 248.566 634.741 260.648 628.889 250.126L648.349 248.566Z" fill="white"/>
<path d="M648.349 248.566C648.349 248.566 634.741 260.648 628.889 250.126" stroke="#263238" stroke-width="0.75" stroke-linecap="round" stroke-linejoin="round"/>
<path d="M614.254 223.013C614.254 223.013 618.349 217.393 625.302 221.54" stroke="#263238" stroke-width="0.75" stroke-linecap="round" stroke-linejoin="round"/>
<path d="M625.635 199.764C625.635 199.764 605.47 201.076 615.577 213.679C615.577 213.679 615.355 204.604 625.635 199.764Z" fill="#263238"/>
<path d="M625.635 228.399C625.635 231.84 623.161 234.589 620.167 234.589C617.173 234.589 614.712 231.803 614.712 228.399C614.712 224.994 617.186 223.447 620.167 223.447C623.149 223.447 625.635 224.945 625.635 228.399Z" stroke="#263238" stroke-width="0.75" stroke-linecap="round" stroke-linejoin="round"/>
<path d="M644.824 226.034C644.662 227.736 643.872 229.316 642.608 230.466C641.344 231.616 639.697 232.254 637.988 232.254C636.28 232.254 634.633 231.616 633.369 230.466C632.105 229.316 631.315 227.736 631.153 226.034C631.153 222.592 634.209 221.082 637.982 221.082C641.755 221.082 644.824 222.592 644.824 226.034Z" stroke="#263238" stroke-width="0.75" stroke-linecap="round" stroke-linejoin="round"/>
<path d="M625.227 226.034C625.227 224.536 631.153 223.769 631.153 225.266" stroke="#263238" stroke-width="0.75" stroke-linecap="round" stroke-linejoin="round"/>
<path d="M644.391 223.608L672.894 226.034" stroke="#263238" stroke-width="0.75" stroke-linecap="round" stroke-linejoin="round"/>
<path d="M628.073 390.651C639.986 411.784 670.197 456.166 714.833 458.741" stroke="#263238" stroke-width="0.75" stroke-linecap="round" stroke-linejoin="round"/>
<path d="M622.37 379.633C622.37 379.633 623.248 381.576 624.943 384.869" stroke="#263238" stroke-width="0.75" stroke-linecap="round" stroke-linejoin="round"/>
<path d="M688 271.233C686.02 271.233 684.016 271.357 681.987 271.444C680.899 280.642 670.16 283.304 660.238 283.304C650.564 283.304 645.071 280.766 644.304 272.1C642.275 272.1 640.271 272.1 638.304 272.1C639.096 284.369 647.174 289.197 660.238 289.197C673.587 289.135 687.183 284.096 688 271.233Z" fill="#7BD0FF" stroke="#263238" stroke-miterlimit="10"/>
<path d="M568.232 362.189C568.232 362.189 567.688 346.9 569.865 346.17C572.042 345.439 572.042 354.538 577.869 354.179" stroke="#263238" stroke-width="0.75" stroke-linecap="round" stroke-linejoin="round"/>
<path d="M497.671 237.421L352.367 232.445C349.349 232.341 346.818 234.706 346.715 237.726L346.321 249.233C346.218 252.253 348.581 254.786 351.599 254.889L496.903 259.865C499.921 259.968 502.452 257.604 502.555 254.583L502.949 243.077C503.052 240.056 500.689 237.524 497.671 237.421Z" fill="white" stroke="#263238" stroke-width="0.75" stroke-linecap="round" stroke-linejoin="round"/>
<path d="M415.494 247.377V246.139L420.53 243.973V245.285L417.066 246.758L420.53 248.219V249.544L415.494 247.377Z" fill="#263238"/>
<path d="M426.121 241.001H427.68L423.103 252.552H421.532L426.121 241.001Z" fill="#263238"/>
<path d="M428.72 248.231L432.196 246.771L428.72 245.297V243.985L433.755 246.152V247.39L428.72 249.568V248.231Z" fill="#263238"/>
<path d="M338.903 240.147H335.365" stroke="#263238" stroke-width="0.75" stroke-linecap="round" stroke-linejoin="round"/>
<path d="M525.786 357.336L521.641 339.398L513.501 308.831L504.915 299.596L493.546 290.93C493.546 290.93 480.976 285.619 480.556 288.355C480.405 289.079 480.511 289.832 480.857 290.486C481.203 291.139 481.766 291.651 482.449 291.933C482.449 291.933 478.873 290.695 478.032 292.886C477.191 295.077 482.981 296.674 486.234 299.522C488.124 301.146 489.886 302.913 491.505 304.808C491.505 304.808 486.939 310.503 487.533 313.585L487.917 314.997C487.917 314.997 478.811 310.045 477.945 314.043C477.079 318.042 483.315 318.872 486.878 322.709C488.992 325.009 491.297 327.126 493.768 329.036C493.768 329.036 497.294 337.949 504.903 341.106L505.373 360.691C505.373 360.691 517.126 363.155 525.786 357.336Z" fill="white" stroke="#263238" stroke-width="0.75" stroke-linecap="round" stroke-linejoin="round"/>
<path d="M483.389 293.072C486.118 294.955 488.974 296.647 491.938 298.135L499.175 305.724C500.933 307.951 502.451 310.358 503.703 312.904" fill="white"/>
<path d="M483.389 293.072C486.118 294.955 488.974 296.647 491.938 298.135L499.175 305.724C500.933 307.951 502.451 310.358 503.703 312.904" stroke="#263238" stroke-width="0.75" stroke-linecap="round" stroke-linejoin="round"/>
<path d="M492.754 306.133C494.031 308.281 495.44 310.349 496.973 312.323C498.655 314.316 498.47 315.467 497.294 316.841" stroke="#263238" stroke-width="0.75" stroke-linecap="round" stroke-linejoin="round"/>
<path d="M490.032 316.321C491.029 317.043 491.942 317.873 492.754 318.797C493.917 320.159 496.886 321.112 498.618 319.899C500.35 318.686 504.965 315.38 504.334 314.142" stroke="#263238" stroke-width="0.75" stroke-linecap="round" stroke-linejoin="round"/>
<path d="M493.546 310.391C493.546 310.391 493.546 312.248 492.309 312.867C491.071 313.486 494.078 312.149 495.278 313.288" stroke="#263238" stroke-width="0.75" stroke-linecap="round" stroke-linejoin="round"/>
<path d="M604.963 410.248C604.963 410.248 594.657 403.699 579.948 409.01C567.181 409.689 554.465 411.128 541.869 413.319C541.869 413.319 543.539 408.899 537.563 409.902C537.563 409.902 535.336 363.848 527.753 348.299C527.753 348.299 526.85 352.743 500.387 353.845C500.387 353.845 498.507 436.209 508.181 448.28C517.856 460.35 598.975 450.991 598.975 450.991C598.975 450.991 613.4 424.349 604.963 410.248Z" fill="#263238" stroke="#263238" stroke-width="0.75" stroke-linecap="round" stroke-linejoin="round"/>
<path opacity="0.2" d="M598.938 450.991C598.938 450.991 600.373 448.329 602.08 444.256C600.398 426.776 553.436 446.163 532.8 448.28C519.08 449.691 509.208 441.978 504.123 436.643C505.175 442.077 506.486 446.212 508.144 448.28C517.818 460.363 598.938 450.991 598.938 450.991Z" fill="black"/>
<path d="M519.192 426.701C519.192 426.701 535.275 409.543 538.071 413.319C540.866 417.095 533.703 417.429 529.534 433.919" stroke="#7F7F7F" stroke-width="0.75" stroke-linecap="round" stroke-linejoin="round"/>
<path d="M598.468 552.396C598.468 552.396 600.868 505.686 598.468 469.97C596.068 434.253 577.535 421.551 598.468 410.905C619.4 400.258 688.371 403.006 709.996 413.653C731.622 424.3 717.889 473.411 718.916 495.039C719.943 516.667 723.729 552.396 723.729 552.396H598.468Z" fill="#263238" stroke="#263238" stroke-width="0.75" stroke-linecap="round" stroke-linejoin="round"/>
<path opacity="0.2" d="M722.281 538.022C721.044 525.642 719.522 507.877 718.916 495.039C718.421 484.677 721.304 468.026 722.083 452.303C718.483 438.24 713.955 427.271 708.549 426.701C692.986 425.104 682.47 458.654 680.181 478.277C677.892 497.899 680.02 505.81 680.02 505.81L651.195 480.852C651.195 480.852 636.856 470.948 629.001 483.253C622.53 493.454 650.391 537.243 664.432 552.396H715.774L722.281 538.022Z" fill="black"/>
<path d="M641.013 508.211C641.013 508.686 640.872 509.151 640.609 509.546C640.345 509.941 639.97 510.249 639.532 510.43C639.093 510.612 638.611 510.66 638.145 510.567C637.679 510.474 637.252 510.246 636.916 509.91C636.58 509.574 636.352 509.146 636.259 508.68C636.167 508.214 636.214 507.731 636.396 507.292C636.577 506.853 636.885 506.478 637.28 506.214C637.674 505.951 638.139 505.81 638.613 505.81C638.928 505.81 639.24 505.872 639.532 505.993C639.823 506.113 640.087 506.29 640.31 506.513C640.533 506.736 640.71 507.001 640.831 507.292C640.951 507.584 641.013 507.896 641.013 508.211Z" fill="#858585"/>
<path d="M641.013 535.584C641.013 536.059 640.872 536.523 640.609 536.918C640.345 537.313 639.97 537.621 639.532 537.802C639.093 537.984 638.611 538.032 638.145 537.939C637.679 537.846 637.252 537.618 636.916 537.282C636.58 536.946 636.352 536.518 636.259 536.052C636.167 535.586 636.214 535.103 636.396 534.664C636.577 534.226 636.885 533.851 637.28 533.587C637.674 533.323 638.139 533.182 638.613 533.182C638.928 533.182 639.24 533.244 639.532 533.365C639.823 533.485 640.087 533.662 640.31 533.885C640.533 534.108 640.71 534.373 640.831 534.664C640.951 534.956 641.013 535.268 641.013 535.584Z" fill="#858585"/>
<path d="M642.498 448.28C646.655 448.28 649.599 456.748 653.533 456.698C657.467 456.649 667.439 429.264 671.769 421.576C676.099 413.888 674.156 404.417 667.624 402.672C661.092 400.926 622.79 402.672 622.79 402.672C621.392 404.91 620.561 407.454 620.367 410.086C620.173 412.717 620.622 415.357 621.677 417.775C625.388 426.021 626.712 453.034 631.97 453.95C637.228 454.866 637.24 448.28 642.498 448.28Z" fill="#858585" stroke="#263238" stroke-linecap="round" stroke-linejoin="round"/>
<path d="M509.703 367.129C509.54 367.575 509.249 367.962 508.866 368.243C508.483 368.523 508.025 368.683 507.551 368.703C507.077 368.724 506.608 368.603 506.202 368.356C505.797 368.11 505.474 367.748 505.273 367.318C505.073 366.888 505.005 366.408 505.077 365.938C505.149 365.469 505.359 365.032 505.679 364.682C505.999 364.332 506.416 364.084 506.877 363.971C507.338 363.858 507.822 363.884 508.268 364.046C508.565 364.154 508.837 364.319 509.07 364.533C509.303 364.746 509.491 365.003 509.624 365.29C509.758 365.576 509.833 365.886 509.847 366.201C509.86 366.517 509.811 366.832 509.703 367.129Z" fill="#858585"/>
<path d="M509.703 377.862C509.54 378.308 509.249 378.696 508.866 378.976C508.483 379.256 508.025 379.417 507.551 379.437C507.077 379.457 506.608 379.336 506.202 379.09C505.797 378.843 505.474 378.482 505.273 378.052C505.073 377.621 505.005 377.141 505.077 376.672C505.149 376.203 505.359 375.765 505.679 375.415C505.999 375.065 506.416 374.818 506.877 374.705C507.338 374.592 507.822 374.618 508.268 374.78C508.855 375.013 509.331 375.462 509.598 376.036C509.865 376.609 509.902 377.262 509.703 377.862Z" fill="#858585"/>
<path d="M621.689 411.14C621.689 411.14 637.475 446.769 643.871 445.705C650.267 444.64 654.857 430.032 661.265 422.752C667.674 415.473 668.305 409.06 667.872 405.061L666.065 386.875L651.653 385.266L631.067 400.382L621.689 411.14Z" fill="white" stroke="#263238" stroke-width="0.75" stroke-linecap="round" stroke-linejoin="round"/>
<path d="M631.067 400.382L621.689 411.14C621.689 411.14 623.78 415.857 626.737 421.799C627.868 421.829 628.998 421.691 630.089 421.39C644.366 417.441 665.236 401.199 664.012 389.202L663.356 386.825C664.03 386.912 664.711 386.912 665.385 386.825L651.653 385.29L631.067 400.382Z" fill="#263238"/>
<path d="M614.514 340.859C614.514 340.859 607.276 361.001 607.276 365.359C607.276 369.716 605.334 374.025 605.272 381.155C605.21 388.286 604.753 414.804 620.118 414.804C635.223 414.804 660.152 404.504 662.181 392.372V389.896C663.006 390.271 663.897 390.481 664.803 390.512C665.709 390.543 666.613 390.395 667.462 390.076C668.311 389.758 669.089 389.275 669.751 388.656C670.414 388.036 670.948 387.292 671.323 386.466C674.527 380.276 679.154 374.829 675.035 370.434C670.915 366.039 663.146 373.641 661.772 376.624C660.399 379.608 657.418 375.708 657.418 375.708C657.418 375.708 657.418 361.286 652.853 356.928C648.288 352.57 659.038 346.405 654.906 340.908C650.774 335.411 628.84 333.988 614.514 340.859Z" fill="white" stroke="#263238" stroke-width="0.75" stroke-linecap="round" stroke-linejoin="round"/>
<path d="M671.558 375.51C671.558 375.51 680.218 363.291 674.305 348.868C674.305 348.868 669.505 324.604 639.986 322.09C639.986 322.09 647.533 316.359 642.733 314.068C635.458 310.602 622.666 322.313 622.666 322.313C622.666 322.313 628.667 313.239 625.747 313.09C622.827 312.942 602.241 336.055 614.514 344.3C626.786 352.545 644.836 345.439 644.836 345.439L653.719 375.51L655.092 379.323L667.983 380.239L671.558 375.51Z" fill="#263238" stroke="#263238" stroke-width="0.75" stroke-linecap="round" stroke-linejoin="round"/>
<path d="M654.906 331.933C663.158 336.724 668.515 345.452 666.3 364.665" stroke="#7F7F7F" stroke-width="0.75" stroke-linecap="round" stroke-linejoin="round"/>
<path d="M630.634 330.187C636.003 329.655 643.933 327.03 651.195 330.1" stroke="#7F7F7F" stroke-width="0.75" stroke-linecap="round" stroke-linejoin="round"/>
<path d="M638.155 317.51C638.155 317.51 621.714 325.52 625.475 329.184" stroke="#7F7F7F" stroke-width="0.75" stroke-linecap="round" stroke-linejoin="round"/>
<path d="M615.85 332.391C619.623 335.362 624.2 332.155 632.205 332.391" stroke="#7F7F7F" stroke-width="0.75" stroke-linecap="round" stroke-linejoin="round"/>
<path d="M620.538 320.023C620.538 320.023 616.493 324.517 615.244 328.268" stroke="#7F7F7F" stroke-width="0.75" stroke-linecap="round" stroke-linejoin="round"/>
<path d="M614.514 340.859C614.514 340.859 607.276 361.001 607.276 365.359C607.276 369.716 605.334 374.025 605.272 381.155C605.21 388.286 604.753 414.804 620.118 414.804C635.223 414.804 660.152 404.504 662.181 392.372V389.896C663.006 390.271 663.897 390.481 664.803 390.512C665.709 390.543 666.613 390.395 667.462 390.076C668.311 389.758 669.089 389.275 669.751 388.656C670.414 388.036 670.948 387.292 671.323 386.466C674.527 380.276 679.154 374.829 675.035 370.434C670.915 366.039 663.146 373.641 661.772 376.624C660.399 379.608 657.418 375.708 657.418 375.708C657.418 375.708 657.418 361.286 652.853 356.928C648.288 352.57 659.038 346.405 654.906 340.908C650.774 335.411 628.84 333.988 614.514 340.859Z" fill="white" stroke="#263238" stroke-width="0.75" stroke-linecap="round" stroke-linejoin="round"/>
<path d="M621.689 366.956C621.689 366.956 613.276 375.114 613.672 378.63C613.895 380.561 618.621 382.121 619.4 383.891C619.553 384.88 619.553 385.886 619.4 386.875" fill="white"/>
<path d="M621.689 366.956C621.689 366.956 613.276 375.114 613.672 378.63C613.895 380.561 618.621 382.121 619.4 383.891C619.553 384.88 619.553 385.886 619.4 386.875" stroke="#263238" stroke-width="0.75" stroke-linecap="round" stroke-linejoin="round"/>
<path d="M615.479 367.599C614.934 369.221 613.635 370.249 612.559 369.89C611.483 369.531 611.037 367.934 611.569 366.312C612.101 364.69 613.413 363.663 614.501 364.022C615.59 364.381 616.011 365.978 615.479 367.599Z" fill="#263238"/>
<path d="M636.213 367.599C635.681 369.221 634.37 370.249 633.293 369.89C632.217 369.531 631.784 367.934 632.316 366.312C632.848 364.69 634.159 363.663 635.236 364.022C636.312 364.381 636.757 365.978 636.213 367.599Z" fill="#263238"/>
<path d="M629 360.753C629 360.753 636.102 356.42 643.846 363.068L629 360.753Z" fill="white"/>
<path d="M629 360.753C629 360.753 636.102 356.42 643.846 363.068" stroke="#263238" stroke-width="0.75" stroke-linecap="round" stroke-linejoin="round"/>
<path d="M614.514 388.732C614.514 388.732 625.574 392.619 636.436 389.871C636.436 389.846 619.45 401.298 614.514 388.732Z" fill="white" stroke="#263238" stroke-width="0.75" stroke-linecap="round" stroke-linejoin="round"/>
<path d="M610.023 361.917C610.023 361.917 615.046 356.655 621.689 361.917H610.023Z" fill="white"/>
<path d="M610.023 361.917C610.023 361.917 615.046 356.655 621.689 361.917" stroke="#263238" stroke-width="0.75" stroke-linecap="round" stroke-linejoin="round"/>
<path d="M653.57 416.773C651.442 423.086 648.238 431.629 644.836 436.841L653.57 416.773Z" fill="white"/>
<path d="M653.57 416.773C651.442 423.086 648.238 431.629 644.836 436.841" stroke="#263238" stroke-width="0.75" stroke-linecap="round" stroke-linejoin="round"/>
<path d="M656.156 408.54C656.156 408.54 655.673 410.261 654.844 412.923L656.156 408.54Z" fill="white"/>
<path d="M656.156 408.54C656.156 408.54 655.673 410.261 654.844 412.923" stroke="#263238" stroke-width="0.75" stroke-linecap="round" stroke-linejoin="round"/>
<path d="M649.797 462.554L642.634 453.888C642.634 453.888 633.974 441.26 630.634 431.356C627.293 421.452 626.848 416.191 621.59 416.191C616.332 416.191 597.812 414.953 598.443 421.242C597.593 423.556 597.593 426.096 598.443 428.41C598.811 431.267 599.827 434.003 601.412 436.407C603.887 439.998 605.408 439.304 605.408 439.304C605.408 439.304 607.091 442.102 608.773 442.102C608.773 442.102 610.245 449.679 621.615 456.215L629.607 464.881L638.032 480.468L653.731 467.964L649.797 462.554Z" fill="white" stroke="#263238" stroke-width="0.75" stroke-linecap="round" stroke-linejoin="round"/>
<path d="M623.693 424.795C621.805 425.636 619.852 426.323 617.854 426.85C615.169 427.481 606.014 428.905 605.384 431.592C604.753 434.278 608.377 441.075 610.332 441.384C612.287 441.694 618.992 441.384 619.326 439.96C619.506 441.221 619.506 442.501 619.326 443.761C619.004 445.655 617.582 448.651 619.957 453.554" fill="white"/>
<path d="M623.693 424.795C621.805 425.636 619.852 426.323 617.854 426.85C615.169 427.481 606.014 428.905 605.384 431.592C604.753 434.278 608.377 441.075 610.332 441.384C612.287 441.694 618.992 441.384 619.326 439.96C619.506 441.221 619.506 442.501 619.326 443.761C619.004 445.655 617.582 448.651 619.957 453.554" stroke="#263238" stroke-width="0.75" stroke-linecap="round" stroke-linejoin="round"/>
<path d="M598.418 428.435C599.305 427.176 600.628 426.293 602.13 425.959C604.493 425.476 613.969 423.111 615.466 422.009" fill="white"/>
<path d="M598.418 428.435C599.305 427.176 600.628 426.293 602.13 425.959C604.493 425.476 613.969 423.111 615.466 422.009" stroke="#263238" stroke-width="0.75" stroke-linecap="round" stroke-linejoin="round"/>
<path d="M598.443 421.267C599.589 420.689 600.809 420.273 602.068 420.029C603.961 419.707 613.672 416.946 616.914 417.305" fill="white"/>
<path d="M598.443 421.267C599.589 420.689 600.809 420.273 602.068 420.029C603.961 419.707 613.672 416.946 616.914 417.305" stroke="#263238" stroke-width="0.75" stroke-linecap="round" stroke-linejoin="round"/>
<path d="M618.015 437.72C618.015 437.72 615.726 435.912 614.501 436.482C613.276 437.051 612.856 438.376 611.272 439.23" fill="white"/>
<path d="M618.015 437.72C618.015 437.72 615.726 435.912 614.501 436.482C613.276 437.051 612.856 438.376 611.272 439.23" stroke="#263238" stroke-width="0.75" stroke-linecap="round" stroke-linejoin="round"/>
<path d="M614.501 436.432C616.467 435.889 618.305 434.958 619.908 433.696L614.501 436.432Z" fill="white"/>
<path d="M614.501 436.432C616.467 435.889 618.305 434.958 619.908 433.696" stroke="#263238" stroke-width="0.75" stroke-linecap="round" stroke-linejoin="round"/>
<path d="M714.45 415.72C702.685 409.27 686.651 432.892 686.317 461.39C685.983 489.889 685.625 495.039 685.625 495.039L650.279 456.921C650.279 456.921 647.879 466.887 631.067 474.785C636.656 490.235 644.026 504.98 653.026 518.722C667.439 540.362 681.48 559.576 690.437 559.576C699.394 559.576 715.935 538.617 721.997 511.158C735.048 452.118 738.884 429.116 714.45 415.72Z" fill="#263238" stroke="#263238" stroke-width="0.75" stroke-linecap="round" stroke-linejoin="round"/>
<path d="M692.194 500.078C692.052 499.968 691.954 499.812 691.917 499.637C691.88 499.462 691.906 499.28 691.991 499.122C692.075 498.965 692.213 498.843 692.379 498.777C692.546 498.712 692.73 498.708 692.899 498.765C698.12 500.536 707.46 505.314 713.423 517.707" stroke="#7F7F7F" stroke-width="0.75" stroke-linecap="round" stroke-linejoin="round"/>
<path d="M705.53 522.51C703.846 515.214 700.314 508.473 695.274 502.938" stroke="#7F7F7F" stroke-width="0.75" stroke-linecap="round" stroke-linejoin="round"/>
<path d="M716.751 501.056C717.642 501.881 718.533 502.834 719.423 503.916" stroke="#7F7F7F" stroke-width="0.75" stroke-linecap="round" stroke-linejoin="round"/>
<path d="M691.909 493.962C691.909 493.962 702.437 489.468 714.091 498.679" stroke="#7F7F7F" stroke-width="0.75" stroke-linecap="round" stroke-linejoin="round"/>
<path d="M688.816 464.151C688.482 465.921 688.223 467.741 688.025 469.635" stroke="#7F7F7F" stroke-width="0.75" stroke-linecap="round" stroke-linejoin="round"/>
<path d="M705.666 431.852C698.472 439.1 693.21 448.039 690.363 457.85" stroke="#7F7F7F" stroke-width="0.75" stroke-linecap="round" stroke-linejoin="round"/>
<path d="M643.413 483.253C643.413 483.728 643.272 484.193 643.009 484.588C642.745 484.983 642.37 485.29 641.932 485.472C641.493 485.654 641.011 485.702 640.545 485.609C640.079 485.516 639.652 485.287 639.316 484.952C638.98 484.616 638.752 484.188 638.659 483.722C638.567 483.256 638.614 482.773 638.796 482.334C638.977 481.895 639.285 481.52 639.68 481.256C640.074 480.992 640.539 480.852 641.013 480.852C641.65 480.852 642.26 481.105 642.71 481.555C643.16 482.005 643.413 482.616 643.413 483.253Z" fill="#858585"/>
<path d="M648.263 492.922C648.251 493.397 648.099 493.858 647.826 494.247C647.553 494.636 647.171 494.936 646.729 495.109C646.286 495.282 645.803 495.32 645.338 495.219C644.874 495.118 644.45 494.882 644.12 494.541C643.789 494.2 643.566 493.769 643.479 493.301C643.393 492.834 643.446 492.351 643.632 491.914C643.818 491.477 644.129 491.104 644.526 490.843C644.923 490.582 645.388 490.444 645.863 490.446C646.184 490.446 646.503 490.51 646.799 490.636C647.095 490.761 647.363 490.945 647.587 491.176C647.811 491.407 647.986 491.68 648.102 491.98C648.218 492.28 648.273 492.6 648.263 492.922Z" fill="#858585"/>
<path d="M680.02 488.998L650.279 456.921" stroke="#7F7F7F" stroke-width="0.75" stroke-linecap="round" stroke-linejoin="round"/>
<path d="M698.689 421.824C691.909 430.193 686.515 444.987 686.317 461.44C685.971 489.914 685.625 495.089 685.625 495.089" stroke="#7F7F7F" stroke-width="0.75" stroke-linecap="round" stroke-linejoin="round"/>
<path d="M706.409 415.498C704.662 416.28 703.056 417.347 701.658 418.654" stroke="#7F7F7F" stroke-width="0.75" stroke-linecap="round" stroke-linejoin="round"/>
<path d="M703.934 550.18C709.848 543.061 715.811 532.39 719.757 519.799" stroke="#7F7F7F" stroke-width="0.75" stroke-linecap="round" stroke-linejoin="round"/>
<path d="M631.067 474.785C636.656 490.235 644.026 504.98 653.026 518.722C661.364 531.238 669.591 542.95 676.767 550.601" stroke="#7F7F7F" stroke-width="0.75" stroke-linecap="round" stroke-linejoin="round"/>
<path d="M649.116 558.561H594.113V553.522H649.562C649.995 553.522 650.41 553.694 650.717 554.001C651.023 554.307 651.195 554.723 651.195 555.156V556.481C651.195 557.033 650.976 557.562 650.586 557.952C650.196 558.342 649.668 558.561 649.116 558.561Z" fill="#CBF2D6" stroke="#263238" stroke-linecap="round" stroke-linejoin="round"/>
<path d="M567.391 470.192H574.356C575.422 470.198 576.459 470.548 577.31 471.19C578.162 471.833 578.783 472.733 579.082 473.758L601.882 552.259C602.09 552.993 602.126 553.765 601.986 554.514C601.847 555.264 601.537 555.971 601.079 556.581C600.622 557.191 600.03 557.687 599.349 558.031C598.669 558.374 597.919 558.555 597.157 558.561H591.107L567.391 470.192Z" fill="#263238" stroke="#263238" stroke-width="0.75" stroke-linecap="round" stroke-linejoin="round"/>
<path d="M493.62 558.561H594.732C595.494 558.555 596.244 558.374 596.924 558.031C597.605 557.687 598.197 557.191 598.654 556.581C599.112 555.971 599.422 555.264 599.561 554.514C599.701 553.765 599.665 552.993 599.458 552.259L576.657 473.758C576.358 472.733 575.737 471.833 574.885 471.19C574.034 470.548 572.998 470.198 571.931 470.192H470.844C470.081 470.197 469.329 470.379 468.647 470.723C467.966 471.067 467.373 471.564 466.915 472.176C466.458 472.787 466.148 473.496 466.009 474.247C465.871 474.999 465.908 475.772 466.118 476.506L488.907 555.008C489.207 556.028 489.827 556.924 490.676 557.564C491.525 558.204 492.557 558.554 493.62 558.561Z" fill="#7BD0FF" stroke="#263238" stroke-width="0.75" stroke-linecap="round" stroke-linejoin="round"/>
<path d="M480.321 291.264H334.932C331.912 291.264 329.464 293.714 329.464 296.736V308.25C329.464 311.272 331.912 313.722 334.932 313.722H480.321C483.341 313.722 485.789 311.272 485.789 308.25V296.736C485.789 293.714 483.341 291.264 480.321 291.264Z" fill="#7BD0FF"/>
<path opacity="0.5" d="M480.321 291.264H334.932C331.912 291.264 329.464 293.714 329.464 296.736V308.25C329.464 311.272 331.912 313.722 334.932 313.722H480.321C483.341 313.722 485.789 311.272 485.789 308.25V296.736C485.789 293.714 483.341 291.264 480.321 291.264Z" fill="white"/>
<path d="M480.321 291.264H334.932C331.912 291.264 329.464 293.714 329.464 296.736V308.25C329.464 311.272 331.912 313.722 334.932 313.722H480.321C483.341 313.722 485.789 311.272 485.789 308.25V296.736C485.789 293.714 483.341 291.264 480.321 291.264Z" stroke="#263238" stroke-width="0.75" stroke-linecap="round" stroke-linejoin="round"/>
<path d="M401.329 304.672V298.482C401.304 298.116 401.355 297.749 401.477 297.404C401.6 297.059 401.792 296.742 402.042 296.475C402.292 296.207 402.595 295.993 402.931 295.847C403.267 295.701 403.629 295.626 403.995 295.626C404.361 295.626 404.724 295.701 405.06 295.847C405.396 295.993 405.698 296.207 405.948 296.475C406.198 296.742 406.39 297.059 406.513 297.404C406.636 297.749 406.686 298.116 406.661 298.482V299.72H404.954V298.358C404.954 297.59 404.583 297.281 404.038 297.281C403.494 297.281 403.135 297.59 403.135 298.358V304.796C403.135 305.551 403.494 305.848 404.038 305.848C404.583 305.848 404.954 305.551 404.954 304.796V303.025H406.661V304.659C406.686 305.025 406.636 305.392 406.513 305.737C406.39 306.083 406.198 306.399 405.948 306.667C405.698 306.935 405.396 307.148 405.06 307.294C404.724 307.44 404.361 307.515 403.995 307.515C403.629 307.515 403.267 307.44 402.931 307.294C402.595 307.148 402.292 306.935 402.042 306.667C401.792 306.399 401.6 306.083 401.477 305.737C401.355 305.392 401.304 305.025 401.329 304.659V304.672Z" fill="#263238"/>
<path d="M409.729 302.221H407.515V300.983H409.729V298.754H410.966V300.983H413.206V302.221H411.004V304.474H409.766L409.729 302.221Z" fill="#263238"/>
<path d="M416.311 302.221H414.109V300.983H416.311V298.754H417.548V300.983H419.75V302.221H417.548V304.474H416.311V302.221Z" fill="#263238"/>
<path d="M470.342 186.544L326.607 208.425C323.621 208.88 321.569 211.67 322.024 214.658L323.754 226.041C324.208 229.028 326.997 231.082 329.982 230.627L473.718 208.746C476.703 208.291 478.755 205.501 478.301 202.513L476.571 191.131C476.117 188.143 473.328 186.09 470.342 186.544Z" fill="#7BD0FF" stroke="#263238" stroke-width="0.75" stroke-linecap="round" stroke-linejoin="round"/>
<path d="M114.51 289.803C114.51 289.803 101.804 296.08 98.9714 308.695C98.9714 308.695 95.3713 305.093 93.9363 320.592C93.9363 320.592 61.8695 380.091 61.4984 405.693C61.1272 431.294 121.673 472.755 121.673 472.755C121.673 472.755 128.168 464.089 126.721 456.166C126.721 456.166 103.301 411.821 91.4125 406.411C91.4125 406.411 104.737 373.963 113.755 367.835C122.774 361.706 114.51 289.803 114.51 289.803Z" fill="#263238" stroke="#263238" stroke-width="0.75" stroke-linecap="round" stroke-linejoin="round"/>
<path opacity="0.2" d="M91.363 406.411C91.363 406.411 101.693 381.304 110.304 371.078C105.899 359.763 97.7095 340.958 94.2208 347.358C89.2722 356.334 76.443 402.362 83.7546 409.109C91.0661 415.857 79.1895 416.24 84.6701 425.203C89.3217 432.792 115.524 457.936 125.743 464.943C126.814 462.149 127.15 459.127 126.721 456.166C126.721 456.166 103.252 411.821 91.363 406.411Z" fill="black"/>
<path d="M97.8333 322.982C97.8333 322.982 99.0704 341.552 103.339 352.149" stroke="#7F7F7F" stroke-width="0.75" stroke-linecap="round" stroke-linejoin="round"/>
<path d="M88.9877 410.075C88.9877 410.075 82.2329 417.33 72.9048 416.352" stroke="#7F7F7F" stroke-width="0.75" stroke-linecap="round" stroke-linejoin="round"/>
<path d="M115.524 442.845L116.217 464.819" stroke="#7F7F7F" stroke-width="0.75" stroke-linecap="round" stroke-linejoin="round"/>
<path d="M223.601 481.409C223.601 481.409 238.769 528.898 241.614 552.383H118.382C118.382 552.383 117.306 496.673 121.982 478.883L223.601 481.409Z" fill="#7BD0FF" stroke="#263238" stroke-width="0.75" stroke-linecap="round" stroke-linejoin="round"/>
<path d="M171.777 539.768C174.548 542.244 179.942 552.334 179.942 552.334" stroke="#263238" stroke-width="0.75" stroke-linecap="round" stroke-linejoin="round"/>
<path d="M145.773 507.729C152.011 517.31 159.015 526.368 166.717 534.816" stroke="#263238" stroke-width="0.75" stroke-linecap="round" stroke-linejoin="round"/>
<path d="M179.274 195.839C179.274 195.839 188.652 187.433 186.487 182.135C183.666 175.239 176.392 185.502 176.392 185.502C176.392 185.502 179.274 174.929 173.113 172.28C166.519 169.457 161.027 181.899 161.027 181.899C161.027 181.899 159.319 171.215 149.966 173.481C142.049 175.412 148.531 184.301 142.049 187.186C135.566 190.07 114.176 197.523 118.259 211.946C118.259 211.946 112.493 200.643 110.341 205.211C108.188 209.779 115.623 216.031 118.506 216.749C118.506 216.749 113.941 226.368 117.541 229.018C121.141 231.667 120.424 222.048 120.424 222.048C120.424 222.048 122.774 248.541 148.296 262.431C173.819 276.322 173.113 230.243 173.113 230.243L179.522 209.569L179.274 195.839Z" fill="#263238" stroke="#263238" stroke-width="0.75" stroke-linecap="round" stroke-linejoin="round"/>
<path d="M146.775 193.92C136.036 197.288 119.879 201.348 126.881 222.766" stroke="#7F7F7F" stroke-width="0.75" stroke-linecap="round" stroke-linejoin="round"/>
<path d="M151.414 177.814C151.414 177.814 155.422 186.17 151.228 191.135" stroke="#7F7F7F" stroke-width="0.75" stroke-linecap="round" stroke-linejoin="round"/>
<path d="M139.166 235.988C139.735 237.349 140.403 238.761 141.084 240.222" stroke="#7F7F7F" stroke-width="0.75" stroke-linecap="round" stroke-linejoin="round"/>
<path d="M167.67 186.492C165.435 190.058 162.205 192.89 158.379 194.638C147.245 199.987 129.714 206.139 137.1 230.305" stroke="#7F7F7F" stroke-width="0.75" stroke-linecap="round" stroke-linejoin="round"/>
<path d="M170.627 176.848C170.595 178.492 170.324 180.123 169.823 181.689" stroke="#7F7F7F" stroke-width="0.75" stroke-linecap="round" stroke-linejoin="round"/>
<path d="M151.303 206.177C145.612 210.559 153.777 216.365 157.179 223.719" stroke="#7F7F7F" stroke-width="0.75" stroke-linecap="round" stroke-linejoin="round"/>
<path d="M183.097 184.549C183.097 184.549 172.532 198.971 157.117 203.527" stroke="#7F7F7F" stroke-width="0.75" stroke-linecap="round" stroke-linejoin="round"/>
<path d="M119.471 482.127C119.471 482.127 118.741 456.129 115.141 415.782C111.541 375.436 91.363 294.644 119.471 287.426C147.579 280.209 203.597 275.678 222.513 293.914C243.42 314.105 227.56 426.602 226.843 446.076C226.125 465.55 229.725 487.896 229.725 487.896C229.725 487.896 155.138 504.126 119.471 482.127Z" fill="#263238" stroke="#263238" stroke-width="0.75" stroke-linecap="round" stroke-linejoin="round"/>
<path opacity="0.2" d="M226.843 446.076C227.127 438.264 229.849 415.498 231.667 389.722C229.75 377.54 227.956 366.2 226.57 357.955C221.449 326.906 172.47 325.21 135.343 329.308C117.331 331.264 110.601 348.819 108.436 366.374C110.91 384.535 113.941 402.424 115.141 415.894C118.741 456.277 119.471 482.238 119.471 482.238C155.138 504.237 229.725 488.007 229.725 488.007C229.725 488.007 226.125 465.55 226.843 446.076Z" fill="black"/>
<path d="M178.074 276.606V268.436C178.074 268.436 192.029 270.602 193.947 266.987C195.864 263.372 192.71 248.479 192.71 248.479C192.71 248.479 199.427 248.727 199.427 245.594C199.427 242.462 191.51 229.253 191.51 229.253C191.51 229.253 192.462 218.68 191.51 215.313C190.557 211.946 180.697 192.955 180.697 192.955C180.697 192.955 166.284 200.878 166.767 205.211C167.249 209.544 171.332 213.629 168.004 217.232C164.676 220.834 160.074 230.565 161.509 235.195L159.356 236.706C159.356 236.706 158.119 228.04 153.344 226.604C148.568 225.167 144.684 234.787 148.061 241.46C151.439 248.132 155.274 246.993 155.274 246.993C155.274 246.993 153.344 258.532 148.309 262.382L146.787 274.39L178.074 276.606Z" fill="white" stroke="#263238" stroke-width="0.75" stroke-linecap="round" stroke-linejoin="round"/>
<path d="M187.328 229.488C188.189 229.488 188.887 228.197 188.887 226.604C188.887 225.01 188.189 223.719 187.328 223.719C186.467 223.719 185.769 225.01 185.769 226.604C185.769 228.197 186.467 229.488 187.328 229.488Z" fill="#263238"/>
<path d="M176.639 246.362C176.639 246.362 177.765 249.482 186.809 249.965" stroke="#263238" stroke-width="0.75" stroke-linecap="round" stroke-linejoin="round"/>
<path d="M187.328 218.445C185.896 218.283 184.453 218.625 183.247 219.414C182.041 220.203 181.148 221.388 180.722 222.766" stroke="#263238" stroke-width="0.75" stroke-linecap="round" stroke-linejoin="round"/>
<path d="M137.236 287.971C137.236 287.971 127.636 274.923 137.236 273.487C146.836 272.051 186.239 268.671 192.487 273.487C198.735 278.302 182.887 276.854 181.922 285.025C180.957 293.196 137.236 287.971 137.236 287.971Z" fill="#263238" stroke="#263238" stroke-width="0.75" stroke-linecap="round" stroke-linejoin="round"/>
<path d="M196.533 229.03C196.533 233.673 195.184 237.424 193.514 237.424C191.844 237.424 190.495 233.71 190.495 229.03C190.495 224.35 191.844 220.636 193.514 220.636C195.184 220.636 196.533 224.35 196.533 229.03Z" stroke="#263238" stroke-width="0.75" stroke-linecap="round" stroke-linejoin="round"/>
<path d="M195.864 223.719L162.66 226.195C160.305 226.358 158.052 227.22 156.189 228.671" stroke="#263238" stroke-linecap="round" stroke-linejoin="round"/>
<path d="M296.048 255.635L303.892 238.154C303.892 238.154 308.469 219.2 312.094 215.078C315.719 210.955 321.608 203.502 323.476 205.57C324.837 207.056 323.154 212.131 320.16 216.031C316.919 220.265 319.554 224.239 320.742 225.935C321.929 227.631 328.993 231.11 334.511 231.828C340.029 232.546 351.027 225.564 354.813 228.015C358.598 230.466 350.878 233.165 350.878 233.165C350.878 233.165 356.829 232.373 358.079 235.715C358.809 237.696 352.697 237.659 349.716 237.956C346.734 238.253 340.684 239.194 340.684 239.194C340.684 239.194 351.546 240.581 351.41 243.552C351.274 246.523 343.258 243.737 337.171 243.973C337.171 243.973 345.905 246.226 345.423 249.086C344.94 251.945 340.326 248.937 333.051 247.674L316.152 245.533L310.82 265.266L296.048 255.635Z" fill="white" stroke="#263238" stroke-width="0.75" stroke-linecap="round" stroke-linejoin="round"/>
<path d="M346.462 234.155C344.56 235.256 342.458 235.967 340.278 236.245C338.099 236.524 335.886 236.365 333.769 235.777C333.769 235.777 334.486 238.117 333.769 239.107C333.051 240.098 333.138 242.079 331.294 243.341C330.373 244.004 329.41 244.608 328.412 245.149" stroke="#263238" stroke-width="0.75" stroke-linecap="round" stroke-linejoin="round"/>
<path d="M196.533 282.982C196.533 282.982 223.131 283.093 233.276 291.388C233.276 291.388 233.276 287.067 241.255 291.388C241.255 291.388 265.392 288.504 276.563 291.388C276.563 291.388 290.258 257.492 298.547 248.479C298.547 248.479 310.436 249.209 313.678 254.607C315.224 257.182 311.574 271.32 308.185 285.718C304.473 301.614 300.675 317.832 297.459 319.144C291.335 321.62 226.843 327.439 226.843 327.439L196.533 311.567V282.982Z" fill="#263238" stroke="#263238" stroke-width="0.75" stroke-linecap="round" stroke-linejoin="round"/>
<path opacity="0.2" d="M314.012 255.994C313.691 255.732 313.32 255.539 312.923 255.424C303.743 252.948 299.215 304.598 292.114 310.688C285.013 316.779 246.6 312.843 236.925 310.825C229.713 309.327 231.234 320.939 232.472 326.919C248.295 325.445 292.448 321.211 297.459 319.144C300.675 317.819 304.436 301.602 308.185 285.718C311.179 273.016 314.358 260.525 314.012 255.994Z" fill="black"/>
<path d="M279.805 292.836C279.805 292.836 285.211 293.914 291.694 302.567" stroke="#7F7F7F" stroke-width="0.75" stroke-linecap="round" stroke-linejoin="round"/>
<path d="M236.208 297.702C238.086 305.949 238.086 314.512 236.208 322.759" stroke="#7F7F7F" stroke-width="0.75" stroke-linecap="round" stroke-linejoin="round"/>
<path d="M213.518 287.971C213.518 287.971 230.838 297.108 232.076 322.759" stroke="#7F7F7F" stroke-width="0.75" stroke-linecap="round" stroke-linejoin="round"/>
<path d="M214.607 454.346C215.791 452.838 216.757 451.171 217.477 449.394" stroke="#7F7F7F" stroke-width="0.75" stroke-linecap="round" stroke-linejoin="round"/>
<path d="M131.954 468.187C131.954 468.187 189.085 475.714 210.772 458.196" stroke="#7F7F7F" stroke-width="0.75" stroke-linecap="round" stroke-linejoin="round"/>
<path d="M391.89 212.391L390.888 206.276C390.8 205.918 390.787 205.546 390.85 205.182C390.913 204.819 391.051 204.473 391.254 204.166C391.456 203.858 391.721 203.596 392.03 203.396C392.339 203.195 392.686 203.061 393.049 203.001C393.412 202.941 393.784 202.957 394.141 203.048C394.498 203.139 394.832 203.302 395.123 203.528C395.414 203.754 395.655 204.038 395.831 204.362C396.007 204.685 396.114 205.042 396.146 205.409L396.343 206.647L394.661 206.919L394.438 205.607C394.315 204.864 393.906 204.617 393.374 204.703C392.842 204.79 392.533 205.149 392.657 205.941L393.696 212.292C393.82 213.047 394.228 213.283 394.76 213.184C395.292 213.085 395.614 212.75 395.49 211.946L395.205 210.212L396.888 209.94L397.16 211.537C397.227 211.887 397.223 212.247 397.149 212.596C397.075 212.945 396.932 213.275 396.728 213.568C396.525 213.86 396.265 214.109 395.963 214.3C395.662 214.49 395.326 214.619 394.975 214.677C394.623 214.736 394.264 214.724 393.917 214.641C393.57 214.559 393.244 214.408 392.956 214.197C392.669 213.986 392.426 213.72 392.243 213.414C392.06 213.108 391.94 212.769 391.89 212.416V212.391Z" fill="#263238"/>
<path d="M397.939 211.327L397.84 210.67L399.523 210.386L399.659 211.178C399.795 211.983 400.191 212.218 400.76 212.119C401.329 212.02 401.638 211.686 401.502 210.881C401.366 210.076 400.896 209.395 399.548 208.566C397.84 207.501 397.197 206.647 396.987 205.347C396.864 204.986 396.827 204.601 396.877 204.223C396.928 203.844 397.065 203.483 397.278 203.167C397.491 202.85 397.775 202.587 398.106 202.399C398.438 202.21 398.808 202.1 399.189 202.079C400.921 201.794 401.948 202.698 402.257 204.555L402.331 205.025L400.649 205.298L400.55 204.716C400.414 203.899 400.03 203.651 399.473 203.738C398.917 203.824 398.62 204.196 398.756 204.976C398.892 205.756 399.362 206.35 400.698 207.179C401.369 207.47 401.958 207.921 402.413 208.493C402.868 209.065 403.176 209.741 403.309 210.46C403.425 210.828 403.457 211.217 403.403 211.598C403.349 211.98 403.21 212.345 402.996 212.666C402.783 212.987 402.5 213.255 402.168 213.452C401.837 213.649 401.466 213.769 401.082 213.803C399.288 214.038 398.249 213.146 397.939 211.327Z" fill="#263238"/>
<path d="M403.989 210.324L403.878 209.668L405.573 209.395L405.696 210.175C405.832 210.992 406.241 211.215 406.81 211.129C407.379 211.042 407.688 210.683 407.552 209.891C407.416 209.098 406.933 208.405 405.597 207.575C403.89 206.498 403.247 205.657 403.036 204.357C402.914 203.996 402.876 203.612 402.926 203.235C402.976 202.858 403.112 202.497 403.324 202.181C403.536 201.865 403.818 201.602 404.147 201.412C404.477 201.223 404.846 201.112 405.226 201.088C406.971 200.804 407.997 201.695 408.294 203.564L408.381 204.035L406.686 204.32L406.587 203.738C406.463 202.921 406.08 202.661 405.511 202.76C404.942 202.859 404.669 203.218 404.793 203.998C404.917 204.778 405.412 205.359 406.748 206.189C407.413 206.491 407.994 206.951 408.44 207.53C408.886 208.108 409.185 208.787 409.309 209.507C409.43 209.873 409.466 210.263 409.415 210.646C409.364 211.028 409.226 211.395 409.013 211.717C408.8 212.038 408.516 212.308 408.184 212.504C407.852 212.7 407.479 212.818 407.094 212.849C405.338 213.035 404.286 212.144 403.989 210.324Z" fill="#263238"/>
<path d="M201.716 352.521C201.716 352.521 173.126 360.778 174.264 382.059C175.402 403.34 180.895 402.127 168.771 409.147C156.647 416.166 168.091 429.45 164.651 435.405C161.212 441.359 139.488 457.837 148.878 466.355C158.268 474.872 205.378 457.887 221.869 466.355C238.36 474.823 251.35 456.859 255.717 452.204C260.085 447.549 247.268 440.951 247.726 431.567C248.183 422.183 256.386 370.323 245.895 363.403C235.404 356.482 210.809 348.732 201.716 352.521Z" fill="#263238" stroke="#263238" stroke-width="0.75" stroke-linecap="round" stroke-linejoin="round"/>
<path d="M303.484 386.875L308.729 367.81C308.729 367.81 310.783 354.761 312.44 352.186C314.266 349.899 316.341 347.823 318.626 345.996C320.251 343.716 322.081 341.591 324.094 339.645C326.346 337.751 339.559 330.88 340.585 331.4C341.612 331.92 343.245 335.003 334.672 339.819C337.559 339.663 340.448 340.084 343.171 341.057C346.944 342.592 349.518 343.025 347.885 344.659C346.252 346.293 344.878 347.061 338.792 345.427C336.23 345.724 333.648 345.811 331.072 345.687L329.179 347.915C329.998 347.559 330.919 347.511 331.771 347.779C332.623 348.048 333.35 348.614 333.818 349.376C335.526 352.124 337.53 355.566 336.639 357.534C336.639 357.534 343.245 354.105 345.052 356.928C346.858 359.75 341.278 362.338 339.051 364.059C336.825 365.779 331.406 370.41 331.406 370.41C331.406 370.41 327.546 379.076 319.492 382.257C318.482 384.428 318.179 386.862 318.626 389.215L303.484 386.875Z" fill="white" stroke="#263238" stroke-width="0.75" stroke-linecap="round" stroke-linejoin="round"/>
<path d="M330.515 342.146L327.682 344.461L324.515 349.958L322.362 357.163" stroke="#263238" stroke-width="0.75" stroke-linecap="round" stroke-linejoin="round"/>
<path d="M320.568 357.163C320.568 357.163 325.059 362.573 328.264 363.353C329.667 362.768 331.023 362.077 332.321 361.286C332.89 360.79 333.744 359.825 335.488 358.426" stroke="#263238" stroke-width="0.75" stroke-linecap="round" stroke-linejoin="round"/>
<path d="M325.542 356.742L325.95 355.281C327.288 355.566 328.67 355.566 330.008 355.281L331.035 356.742C329.213 356.475 327.363 356.475 325.542 356.742Z" stroke="#263238" stroke-width="0.75" stroke-linecap="round" stroke-linejoin="round"/>
<path d="M330.094 350.639C329.572 351.803 329.363 353.083 329.488 354.353" stroke="#263238" stroke-width="0.75" stroke-linecap="round" stroke-linejoin="round"/>
<path d="M332.791 355.306C331.734 356.213 330.911 357.362 330.392 358.655C329.873 359.948 329.673 361.347 329.81 362.734" stroke="#263238" stroke-width="0.75" stroke-linecap="round" stroke-linejoin="round"/>
<path d="M327.435 349.265L325.542 351.332V353.647" stroke="#263238" stroke-width="0.75" stroke-linecap="round" stroke-linejoin="round"/>
<path d="M237.828 446.386C237.828 446.386 280.98 447.487 287.178 452.056C287.178 452.056 283.306 445.866 290.271 447.846C290.271 447.846 290.753 394.835 300.168 394.117L303.286 382.059C303.339 381.849 303.441 381.654 303.584 381.49C303.726 381.326 303.905 381.198 304.106 381.116C304.307 381.034 304.525 381.001 304.741 381.018C304.957 381.036 305.166 381.104 305.352 381.217C307.937 382.814 313.294 385.699 318.28 385.761C318.642 385.767 318.987 385.917 319.239 386.176C319.492 386.436 319.632 386.785 319.628 387.147V397.485C319.628 397.485 324.428 398.723 324.181 405.655C323.934 412.588 319.554 475.157 311.624 481.929C303.694 488.7 247.923 485.296 247.923 485.296C247.923 485.296 234.228 472.099 237.828 446.386Z" fill="#7BD0FF" stroke="#263238" stroke-width="0.75" stroke-linecap="round" stroke-linejoin="round"/>
<path opacity="0.2" d="M322.362 428.806C317.08 467.84 306.725 463.247 303.483 466.342C300.242 469.437 306.378 477.323 285.446 479.304C264.514 481.285 251.264 460.326 251.264 460.326L240.562 473.201C242.212 477.692 244.735 481.811 247.985 485.321C247.985 485.321 303.657 488.688 311.636 481.929C316.783 477.534 320.432 449.741 322.424 428.794L322.362 428.806Z" fill="black"/>
<path d="M292.114 457.924C292.114 457.924 295.244 460.326 297.162 467.828" stroke="#263238" stroke-width="0.75" stroke-linecap="round" stroke-linejoin="round"/>
<path d="M294.638 452.155C298.619 454.069 302.113 456.863 304.857 460.326" stroke="#263238" stroke-width="0.75" stroke-linecap="round" stroke-linejoin="round"/>
<path d="M303.484 395.801C303.484 395.801 307.566 398.686 315.731 399.651" stroke="#263238" stroke-width="0.75" stroke-linecap="round" stroke-linejoin="round"/>
<path d="M159.591 552.383C159.591 552.383 126.189 481.879 151.81 459.447C177.431 437.014 231.42 442.956 240.575 445.705C249.73 448.453 258.872 475.008 259.33 489.208C259.788 503.408 268.782 503.197 255.977 552.346L159.591 552.383Z" fill="#7BD0FF" stroke="#263238" stroke-width="0.75" stroke-linecap="round" stroke-linejoin="round"/>
<path opacity="0.2" d="M159.591 552.383H255.977C256.662 549.759 257.284 547.283 257.845 544.955C252.55 542.591 247.726 539.793 240.525 539.186C228.228 538.159 212.665 548.805 190.706 539.186C168.746 529.567 190.013 493.516 188.875 487.277C187.736 481.037 170.454 499.979 170.454 499.979L147.43 519.415C150.657 530.693 154.722 541.713 159.591 552.383Z" fill="black"/>
<path d="M192.574 506.825L212.925 500.152C212.925 500.152 221.387 486.67 225.741 483.241C230.096 479.812 232.83 478.66 237.173 480.765L244.497 479.75C244.497 479.75 247.589 475.813 251.128 476.655C254.666 477.497 267.606 481.458 266.233 484.207C264.86 486.955 253.862 481.916 252.278 483.29C252.278 483.29 255.878 489.753 255.878 493.702C255.878 497.651 256.905 503.668 254.641 503.668C252.377 503.668 250.521 501.192 250.695 497.948C250.695 497.948 250.014 505.042 247.775 504.696C245.536 504.349 244.002 502.455 244.348 499.545C244.348 499.545 239.202 515.516 226.162 515.342L202.52 524.912C202.52 524.912 197.72 523.773 192.574 506.825Z" fill="white" stroke="#263238" stroke-width="0.75" stroke-linecap="round" stroke-linejoin="round"/>
<path d="M230.826 499.508C230.826 499.508 233.919 493.318 233.065 490.409L237.519 488.688C237.519 488.688 239.412 491.263 240.785 490.582L240.092 494.098C240.092 494.098 236.665 498.307 238.546 500.709C240.426 503.111 243.185 497.614 244.732 496.067C246.278 494.519 246.612 487.71 245.412 485.544C244.212 483.377 239.783 483.6 238.484 482.164" stroke="#263238" stroke-width="0.75" stroke-linecap="round" stroke-linejoin="round"/>
<path d="M244.954 480.728C244.954 480.728 248.851 480.27 249.989 482.164C251.362 484.845 252.067 487.818 252.043 490.83C251.801 492.753 251.458 494.662 251.016 496.549" stroke="#263238" stroke-width="0.75" stroke-linecap="round" stroke-linejoin="round"/>
<path d="M244.954 497.911L245.647 494.098" stroke="#263238" stroke-width="0.75" stroke-linecap="round" stroke-linejoin="round"/>
<path d="M248.517 481.074C248.517 481.074 250.732 480.096 252.229 483.253" stroke="#263238" stroke-width="0.75" stroke-linecap="round" stroke-linejoin="round"/>
<path d="M240.439 492.303L238.484 493.095L239.461 494.977L240.092 494.098L240.439 492.303Z" stroke="#263238" stroke-width="0.75" stroke-linecap="round" stroke-linejoin="round"/>
<path d="M219.11 509.35C219.11 509.35 220.026 511.641 224.133 513.931" stroke="#263238" stroke-width="0.75" stroke-linecap="round" stroke-linejoin="round"/>
<path d="M201.951 418.692L195.308 438.153C195.308 438.153 209.498 453.257 221.844 454.408L226.88 460.326L232.373 453.715L230.999 445.247L228.785 441.669L226.88 441.05L230.777 430.366L218.356 413.492H206.294L201.951 418.692Z" fill="white"/>
<path d="M230.777 430.366L218.356 413.492H206.294L204.883 415.2C205.712 419.063 207.469 425.649 210.413 429.512C213.543 433.634 222.352 438.339 227.053 440.654L230.777 430.366Z" fill="#263238" stroke="#263238" stroke-width="0.75" stroke-linecap="round" stroke-linejoin="round"/>
<path d="M201.951 418.692L195.308 438.153C195.308 438.153 209.498 453.257 221.844 454.408L226.88 460.326L232.373 453.715L230.999 445.247L228.785 441.669L226.88 441.05L230.777 430.366L218.356 413.492H206.294L201.951 418.692Z" stroke="#263238" stroke-width="0.75" stroke-linecap="round" stroke-linejoin="round"/>
<path d="M205.366 409.147C205.366 409.147 207.654 423.272 213.828 427.853C220.001 432.433 242.195 440.864 246.315 436.878C250.435 432.891 254.555 420.066 255.47 413.43C256.386 406.794 254.097 395.85 254.555 389.19C255.012 382.53 255.47 371.301 246.315 367.872C237.16 364.442 203.757 381.007 203.757 381.007L201.716 393.684L205.366 409.147Z" fill="white" stroke="#263238" stroke-width="0.75" stroke-linecap="round" stroke-linejoin="round"/>
<path d="M248.505 389.19C248.505 389.19 247.132 394.773 248.505 396.829C249.433 398.227 251.858 401.582 253.33 403.613C253.481 403.823 253.589 404.062 253.648 404.315C253.706 404.568 253.714 404.83 253.67 405.085C253.626 405.341 253.532 405.586 253.393 405.805C253.254 406.024 253.072 406.213 252.86 406.361C251.103 407.599 248.48 409.617 247.911 410.905C247.816 411.474 247.816 412.056 247.911 412.625" stroke="#263238" stroke-width="0.75" stroke-linecap="round" stroke-linejoin="round"/>
<path d="M248.022 416.092C248.022 416.092 241.837 421.044 235.651 414.718" stroke="#263238" stroke-width="0.75" stroke-linecap="round" stroke-linejoin="round"/>
<path d="M230.777 391.332C230.777 391.332 233.486 385.327 243.049 388.41" stroke="#263238" stroke-width="0.75" stroke-linecap="round" stroke-linejoin="round"/>
<path d="M248.876 387.494C249.511 386.863 250.369 386.51 251.264 386.51C252.158 386.51 253.016 386.863 253.651 387.494" stroke="#263238" stroke-width="0.75" stroke-linecap="round" stroke-linejoin="round"/>
<path d="M240.513 393.585C240.896 395.009 240.637 396.309 239.932 396.507C239.226 396.705 238.336 395.69 237.964 394.266C237.593 392.842 237.841 391.542 238.546 391.357C239.251 391.171 240.129 392.161 240.513 393.585Z" fill="#263238"/>
<path d="M253.528 392.136C253.8 393.436 253.528 394.612 252.86 394.724C252.192 394.835 251.474 393.932 251.202 392.632C250.93 391.332 251.202 390.156 251.858 390.032C252.513 389.908 253.243 390.837 253.528 392.136Z" fill="#263238"/>
<path d="M237.222 351.456C237.222 351.456 248.876 344.771 266.394 360.283C282.229 374.297 262.88 366.262 262.88 366.262C262.88 366.262 270.922 381.304 262.349 384.399C253.775 387.494 258.452 378.395 239.239 374.049C239.239 374.049 247.812 381.007 241.936 385.068C234.389 390.28 229.403 381.354 223.453 383.433C223.453 383.433 220.249 401.062 213.84 404.046C213.84 404.046 207.654 427.667 199.403 426.157C191.151 424.646 201.258 421.44 196.681 407.017C192.104 392.595 182.268 378.977 189.827 363.353C197.386 347.729 224.467 346.033 237.222 351.456Z" fill="#263238" stroke="#263238" stroke-width="0.75" stroke-linecap="round" stroke-linejoin="round"/>
<path d="M164.194 455.584C157.736 455.683 151.822 458.06 149.1 462.244C138.906 477.459 126.226 505.735 117.986 524.504C109.747 543.272 113.817 554.624 117.986 556.048C122.155 557.471 136.741 562.003 165.109 548.273C193.477 534.544 190.743 531.783 190.743 531.783L207.011 524.268C207.158 524.202 207.285 524.097 207.379 523.966C207.473 523.834 207.53 523.68 207.545 523.519C207.56 523.358 207.533 523.196 207.465 523.049C207.397 522.903 207.292 522.776 207.16 522.684C204.574 520.827 199.353 515.578 198.994 503.371C198.989 503.225 198.95 503.083 198.879 502.955C198.809 502.828 198.709 502.718 198.589 502.636C198.468 502.554 198.33 502.502 198.186 502.483C198.041 502.465 197.895 502.48 197.757 502.529L182.528 508.719C182.528 508.719 180.239 506.243 166.965 511.195C166.965 511.195 180.239 501.576 186.19 494.247C188.986 490.805 189.901 484.343 188.899 477.732" fill="#7BD0FF"/>
<path d="M164.194 455.584C157.736 455.683 151.822 458.06 149.1 462.244C138.906 477.459 126.226 505.735 117.986 524.504C109.747 543.272 113.817 554.624 117.986 556.048C122.155 557.471 136.741 562.003 165.109 548.273C193.477 534.544 190.743 531.783 190.743 531.783L207.011 524.268C207.158 524.202 207.285 524.097 207.379 523.966C207.473 523.834 207.53 523.68 207.545 523.519C207.56 523.358 207.533 523.196 207.465 523.049C207.397 522.903 207.292 522.776 207.16 522.684C204.574 520.827 199.353 515.578 198.994 503.371C198.989 503.225 198.95 503.083 198.879 502.955C198.809 502.828 198.709 502.718 198.589 502.636C198.468 502.554 198.33 502.502 198.186 502.483C198.041 502.465 197.895 502.48 197.757 502.529L182.528 508.719C182.528 508.719 180.239 506.243 166.965 511.195C166.965 511.195 180.239 501.576 186.19 494.247C188.986 490.805 189.901 484.343 188.899 477.732" stroke="#263238" stroke-width="0.75" stroke-linecap="round" stroke-linejoin="round"/>
<path d="M139.265 520.567C143.657 516.927 162.14 515.07 162.375 512.322C162.61 509.573 146.812 516.221 147.047 512.322" stroke="#263238" stroke-width="0.75" stroke-linecap="round" stroke-linejoin="round"/>
<path d="M176.33 484.169C176.33 484.169 180.907 491.474 180.895 495.609C180.883 499.743 186.388 488.973 186.388 484.169" stroke="#263238" stroke-width="0.75" stroke-linecap="round" stroke-linejoin="round"/>
<path d="M183.419 511.641C183.419 511.641 182.961 517.137 187.996 526.286" stroke="#263238" stroke-width="0.75" stroke-linecap="round" stroke-linejoin="round"/>
<path d="M180.623 445.457C180.623 445.457 185.324 431.542 190.817 433.585C196.31 435.627 223.069 447.203 226.843 460.326C226.843 460.326 221.35 453.083 216.549 460.326C211.749 467.568 207.184 461.13 180.623 445.457Z" fill="#7BD0FF" stroke="#263238" stroke-width="0.75" stroke-linecap="round" stroke-linejoin="round"/>
<path d="M228.785 441.669C230.279 447.924 229.607 454.502 226.88 460.326C226.88 460.326 230.999 455.039 235.799 458.642C240.6 462.244 235.799 447.19 233.573 444.343C232.266 443.184 230.835 442.175 229.304 441.335C229.252 441.289 229.186 441.261 229.117 441.256C229.047 441.251 228.978 441.269 228.919 441.307C228.861 441.344 228.816 441.4 228.792 441.465C228.767 441.531 228.765 441.602 228.785 441.669Z" fill="#7BD0FF" stroke="#263238" stroke-width="0.75" stroke-linecap="round" stroke-linejoin="round"/>
<path d="M226.88 441.05C226.88 441.05 225.457 445.606 226.88 448.329" stroke="#263238" stroke-width="0.75" stroke-linecap="round" stroke-linejoin="round"/>
<path d="M209.176 553.535H264.625V558.573H209.622C209.07 558.573 208.542 558.354 208.152 557.964C207.762 557.574 207.543 557.045 207.543 556.493V555.169C207.543 554.735 207.715 554.32 208.021 554.013C208.328 553.707 208.743 553.535 209.176 553.535Z" fill="#858585" stroke="#263238" stroke-linecap="round" stroke-linejoin="round"/>
<path d="M291.347 470.192H284.382C283.316 470.198 282.279 470.548 281.428 471.19C280.576 471.833 279.955 472.733 279.656 473.758L256.856 552.259C256.648 552.993 256.612 553.765 256.752 554.514C256.891 555.264 257.202 555.971 257.659 556.581C258.116 557.191 258.708 557.687 259.389 558.031C260.069 558.374 260.82 558.555 261.581 558.561H267.631L291.347 470.192Z" fill="#263238" stroke="#263238" stroke-width="0.75" stroke-linecap="round" stroke-linejoin="round"/>
<path d="M380.199 558.561H263.994C263.231 558.557 262.479 558.377 261.797 558.035C261.115 557.692 260.522 557.196 260.063 556.586C259.604 555.976 259.292 555.268 259.152 554.517C259.012 553.767 259.048 552.994 259.256 552.259L282.069 473.758C282.368 472.731 282.991 471.829 283.845 471.187C284.699 470.544 285.738 470.195 286.807 470.192H403.012C403.775 470.197 404.527 470.379 405.208 470.723C405.89 471.067 406.483 471.564 406.941 472.176C407.398 472.787 407.708 473.496 407.847 474.247C407.985 474.999 407.947 475.772 407.738 476.506L384.937 555.008C384.636 556.032 384.011 556.931 383.157 557.572C382.304 558.212 381.266 558.559 380.199 558.561Z" fill="#858585" stroke="#263238" stroke-linecap="round" stroke-linejoin="round"/>
<path d="M204.883 415.139C204.883 415.139 195.543 429.735 201.036 442.882C206.529 456.03 201.716 462.851 195.308 457.924C188.899 452.997 185.93 447.587 157.105 452.155L176.33 433.374L189.369 415.881L201.58 410.137L204.883 415.139Z" fill="#263238" stroke="#263238" stroke-width="0.75" stroke-linecap="round" stroke-linejoin="round"/>
<path d="M261.718 374.049C262.5 375.375 262.898 376.893 262.868 378.432" stroke="#7F7F7F" stroke-width="0.75" stroke-linecap="round" stroke-linejoin="round"/>
<path d="M224.133 359.02C241.453 358.735 252.352 363.972 258.031 369.394" stroke="#7F7F7F" stroke-width="0.75" stroke-linecap="round" stroke-linejoin="round"/>
<path d="M175.513 433.709C176.39 430.485 176.667 427.128 176.33 423.805C174.957 408.354 187.303 413.603 190.05 393.981C192.524 376.216 195.493 362.35 216.809 359.528" stroke="#7F7F7F" stroke-width="0.75" stroke-linecap="round" stroke-linejoin="round"/>
<path d="M167.744 444.69C169.64 443.5 171.266 441.927 172.52 440.072" stroke="#7F7F7F" stroke-width="0.75" stroke-linecap="round" stroke-linejoin="round"/>
<path d="M192.24 444.021C192.773 445.504 193.418 446.944 194.17 448.329" stroke="#7F7F7F" stroke-width="0.75" stroke-linecap="round" stroke-linejoin="round"/>
<path d="M207.518 371.685C199.093 379.113 206.529 393.659 202.57 402.635C198.858 410.954 188.961 423.124 190.743 437.645" stroke="#7F7F7F" stroke-width="0.75" stroke-linecap="round" stroke-linejoin="round"/>
<path d="M239.239 379.979C239.239 379.979 227.622 363.143 212.182 368.986" stroke="#7F7F7F" stroke-width="0.75" stroke-linecap="round" stroke-linejoin="round"/>
<path d="M487.904 333.74H342.515C339.495 333.74 337.047 336.19 337.047 339.212V350.725C337.047 353.747 339.495 356.197 342.515 356.197H487.904C490.924 356.197 493.373 353.747 493.373 350.725V339.212C493.373 336.19 490.924 333.74 487.904 333.74Z" fill="white"/>
<path opacity="0.3" d="M487.904 333.74H342.515C339.495 333.74 337.047 336.19 337.047 339.212V350.725C337.047 353.747 339.495 356.197 342.515 356.197H487.904C490.924 356.197 493.373 353.747 493.373 350.725V339.212C493.373 336.19 490.924 333.74 487.904 333.74Z" fill="black"/>
<path d="M487.904 333.74H342.515C339.495 333.74 337.047 336.19 337.047 339.212V350.725C337.047 353.747 339.495 356.197 342.515 356.197H487.904C490.924 356.197 493.373 353.747 493.373 350.725V339.212C493.373 336.19 490.924 333.74 487.904 333.74Z" stroke="#263238" stroke-width="0.75" stroke-linecap="round" stroke-linejoin="round"/>
<path d="M404.274 338.68H406.946C408.752 338.68 409.643 339.682 409.643 341.527V342.666C409.643 344.511 408.752 345.526 406.946 345.526H406.08V350.218H404.274V338.68ZM406.946 343.879C407.515 343.879 407.824 343.607 407.824 342.79V341.416C407.824 340.599 407.515 340.326 406.946 340.326H406.08V343.879H406.946Z" fill="#263238"/>
<path d="M410.633 338.68H412.439V343.372H414.443V338.68H416.261V350.218H414.443V345.031H412.501V350.218H410.694L410.633 338.68Z" fill="#263238"/>
<path d="M417.548 338.68H420.22C422.027 338.68 422.917 339.682 422.917 341.527V342.666C422.917 344.511 422.027 345.526 420.22 345.526H419.391V350.218H417.573L417.548 338.68ZM420.22 343.879C420.789 343.879 421.111 343.607 421.111 342.79V341.416C421.111 340.599 420.789 340.326 420.22 340.326H419.391V343.879H420.22Z" fill="#263238"/>
</svg>
