<svg width="854" height="712" viewBox="0 0 854 712" fill="none" xmlns="http://www.w3.org/2000/svg">
<path d="M484.194 129.025C480.146 128.654 475.971 128.408 471.867 128.353C471.44 128.353 471.068 128.661 471.068 129.088C471.068 129.515 471.376 129.887 471.803 129.887C475.915 129.95 480.027 130.195 484.076 130.559C484.139 130.559 484.139 130.559 484.139 130.559C484.566 130.559 484.874 130.251 484.938 129.824C484.93 129.397 484.629 129.025 484.194 129.025ZM459.539 128.535H459.476C455.364 128.78 451.197 129.152 447.148 129.642C446.721 129.705 446.413 130.069 446.476 130.504C446.539 130.875 446.848 131.176 447.275 131.176H447.338C451.386 130.686 455.498 130.314 459.61 130.069C459.982 130.069 460.346 129.697 460.282 129.27C460.274 128.899 459.903 128.535 459.539 128.535ZM508.676 132.765C504.627 131.903 500.515 131.113 496.53 130.496C496.103 130.433 495.668 130.741 495.613 131.113C495.549 131.54 495.858 131.975 496.285 132.03C500.27 132.647 504.319 133.382 508.367 134.236C508.43 134.299 508.494 134.299 508.494 134.299C508.865 134.299 509.166 134.054 509.292 133.683C509.348 133.256 509.103 132.892 508.676 132.765ZM434.939 131.54C430.89 132.338 426.842 133.256 422.912 134.363C422.485 134.426 422.24 134.853 422.358 135.28C422.422 135.588 422.73 135.833 423.094 135.833H423.276C427.206 134.79 431.254 133.872 435.239 133.074C435.611 133.01 435.912 132.584 435.856 132.157C435.738 131.785 435.366 131.476 434.939 131.54ZM532.477 139.455C528.547 138.103 524.625 136.877 520.695 135.778C520.268 135.652 519.833 135.905 519.714 136.332C519.588 136.703 519.841 137.13 520.268 137.249C524.135 138.356 528.12 139.582 531.987 140.926H532.232C532.54 140.926 532.849 140.744 532.967 140.436C533.086 140.009 532.904 139.574 532.477 139.455ZM411.074 137.921C407.208 139.21 403.286 140.681 399.482 142.215C399.055 142.397 398.865 142.831 399.055 143.195C399.182 143.504 399.482 143.686 399.727 143.686C399.854 143.686 399.972 143.686 400.036 143.622C403.839 142.088 407.706 140.617 411.565 139.329C411.936 139.202 412.182 138.775 411.992 138.411C411.873 137.984 411.438 137.794 411.074 137.921ZM555.416 148.596C551.676 146.943 547.873 145.283 544.069 143.749C543.697 143.622 543.207 143.812 543.089 144.176C542.907 144.603 543.089 145.038 543.516 145.22C547.319 146.69 551.123 148.351 554.799 150.004C554.926 150.067 554.981 150.067 555.108 150.067C555.416 150.067 555.725 149.885 555.843 149.64C556.033 149.205 555.843 148.778 555.416 148.596ZM389.171 147.615C388.989 147.188 388.554 147.062 388.127 147.244C384.506 148.96 380.765 150.865 377.144 152.826C376.772 153.072 376.654 153.499 376.835 153.87C376.962 154.179 377.262 154.297 377.508 154.297C377.634 154.297 377.753 154.234 377.879 154.171C381.501 152.21 385.178 150.367 388.799 148.588C389.171 148.406 389.361 147.979 389.171 147.615ZM577.502 159.817C573.88 157.792 570.203 155.768 566.582 153.926C566.21 153.744 565.72 153.926 565.538 154.297C565.356 154.669 565.538 155.096 565.909 155.341C569.531 157.183 573.145 159.081 576.703 161.106C576.83 161.232 576.948 161.232 577.075 161.232C577.383 161.232 577.628 161.106 577.747 160.86C577.992 160.497 577.873 160.006 577.502 159.817ZM367.52 159.271C367.275 158.963 366.785 158.844 366.477 159.026C362.982 161.177 359.487 163.383 356.047 165.716C355.675 165.961 355.62 166.451 355.865 166.823C355.991 167.004 356.237 167.131 356.482 167.131C356.664 167.131 356.79 167.068 356.909 167.004C360.341 164.672 363.78 162.466 367.275 160.378C367.639 160.125 367.702 159.635 367.52 159.271ZM598.361 173.006C594.985 170.61 591.553 168.341 588.058 166.135C587.75 165.953 587.259 166.008 587.014 166.38C586.769 166.751 586.888 167.242 587.259 167.424C590.691 169.63 594.131 171.899 597.507 174.232C597.634 174.358 597.816 174.358 597.934 174.358C598.18 174.358 598.425 174.295 598.551 174.05C598.788 173.686 598.725 173.251 598.361 173.006ZM347.032 173.006C346.787 172.698 346.297 172.579 345.989 172.88C342.739 175.212 339.489 177.79 336.176 180.36C335.867 180.668 335.804 181.095 336.049 181.467C336.231 181.649 336.421 181.775 336.666 181.775C336.848 181.775 336.974 181.712 337.156 181.594C340.406 178.953 343.656 176.438 346.914 174.113C347.214 173.868 347.278 173.378 347.032 173.006ZM617.924 188.101C614.793 185.405 611.543 182.827 608.356 180.313C607.985 180.067 607.494 180.131 607.249 180.439C607.004 180.811 607.067 181.301 607.376 181.546C610.626 183.997 613.82 186.639 616.944 189.272C617.07 189.398 617.252 189.454 617.434 189.454C617.616 189.454 617.861 189.327 617.988 189.145C618.296 188.837 618.233 188.347 617.924 188.101ZM327.77 188.347C327.462 188.038 326.971 187.975 326.663 188.283C324.457 190.181 322.243 192.087 320.1 194.048C319.546 194.475 319.056 194.965 318.566 195.455C318.194 195.764 317.767 196.072 317.403 196.436C317.095 196.744 317.095 197.234 317.34 197.543C317.522 197.669 317.712 197.788 317.957 197.788C318.139 197.788 318.329 197.725 318.447 197.606C319.119 196.989 319.799 196.38 320.471 195.764L322.678 193.739C324.33 192.269 325.991 190.853 327.643 189.446C327.952 189.145 328.015 188.655 327.77 188.347ZM635.961 204.968C633.075 202.026 630.133 199.077 627.129 196.317C626.82 196.009 626.33 196.009 626.021 196.317C625.776 196.626 625.776 197.116 626.085 197.424C629.09 200.184 632.039 203.125 634.854 206.012C634.981 206.138 635.162 206.257 635.408 206.257C635.589 206.257 635.779 206.194 635.898 206.012C636.206 205.703 636.206 205.213 635.961 204.968ZM309.488 204.905C309.18 204.596 308.753 204.596 308.444 204.905C305.558 207.664 302.616 210.606 299.675 213.619C299.367 213.927 299.367 214.417 299.675 214.662C299.801 214.844 299.983 214.908 300.228 214.908C300.41 214.908 300.6 214.844 300.782 214.662C303.668 211.721 306.61 208.771 309.496 206.012C309.796 205.703 309.796 205.213 309.488 204.905ZM652.282 223.495C649.704 220.245 647.008 217.05 644.303 213.99C644.058 213.682 643.568 213.682 643.26 213.927C642.888 214.235 642.888 214.726 643.196 215.034C645.837 218.039 648.534 221.233 651.048 224.42C651.23 224.602 651.42 224.729 651.665 224.729C651.847 224.729 651.974 224.665 652.155 224.547C652.464 224.294 652.527 223.803 652.282 223.495ZM292.187 222.451C291.878 222.206 291.388 222.206 291.143 222.514C288.32 225.456 285.56 228.524 282.801 231.592C282.492 231.964 282.555 232.391 282.864 232.699C282.99 232.826 283.172 232.881 283.354 232.881C283.536 232.881 283.781 232.818 283.908 232.636C286.667 229.568 289.49 226.5 292.25 223.558C292.558 223.25 292.495 222.76 292.187 222.451ZM666.697 243.493C664.491 240.061 662.158 236.685 659.762 233.308C659.517 232.936 659.027 232.881 658.655 233.126C658.347 233.371 658.228 233.862 658.473 234.233C660.869 237.546 663.257 240.923 665.464 244.355C665.59 244.537 665.835 244.663 666.08 244.663C666.207 244.663 666.389 244.663 666.507 244.537C666.879 244.355 666.942 243.864 666.697 243.493ZM275.747 240.796C275.375 240.551 274.948 240.614 274.64 240.923C271.999 243.991 269.303 247.122 266.662 250.309C266.416 250.681 266.416 251.171 266.788 251.416C266.915 251.543 267.096 251.598 267.278 251.598C267.46 251.598 267.705 251.471 267.832 251.29C270.473 248.103 273.169 244.971 275.81 241.903C276.055 241.595 276.056 241.105 275.747 240.796ZM679.215 264.843C678.416 263.372 677.681 261.957 676.882 260.549C675.72 258.343 674.486 256.192 673.205 254.049C673.023 253.678 672.533 253.559 672.161 253.741C671.79 253.986 671.671 254.413 671.916 254.785C673.205 256.991 674.431 259.26 675.72 261.593C676.392 262.882 677.127 264.234 677.807 265.578C677.989 265.823 678.234 265.95 678.479 265.95C678.606 265.95 678.724 265.95 678.851 265.887C679.215 265.705 679.396 265.207 679.215 264.843ZM259.98 259.75C259.608 259.505 259.181 259.569 258.873 259.877C256.358 262.945 253.962 266.132 251.511 269.263C251.448 269.39 251.329 269.445 251.266 269.571C250.957 269.943 251.021 270.433 251.392 270.678C251.519 270.805 251.701 270.86 251.819 270.86C252.001 270.86 252.191 270.797 252.31 270.678C252.373 270.615 252.373 270.615 252.436 270.552C255.014 267.239 257.528 264.052 260.106 260.857C260.351 260.549 260.288 260.059 259.98 259.75ZM689.518 287.292C689.146 286.375 688.719 285.394 688.292 284.406C688.11 283.915 687.865 283.362 687.62 282.808C686.703 280.539 685.659 278.206 684.615 275.937C684.433 275.565 683.999 275.383 683.572 275.565C683.2 275.747 683.018 276.182 683.2 276.546C683.935 278.143 684.671 279.732 685.351 281.33C685.841 282.374 686.268 283.417 686.64 284.398C687.13 285.442 687.557 286.422 687.929 287.466C687.992 287.592 688.055 287.711 688.11 287.838C688.237 288.146 688.482 288.328 688.783 288.328C688.909 288.328 688.964 288.328 689.091 288.265C689.399 288.138 689.644 287.838 689.581 287.466C689.581 287.418 689.581 287.355 689.518 287.292ZM244.829 279.258C244.458 279.013 244.031 279.076 243.722 279.385C241.271 282.634 238.812 285.948 236.36 289.324C236.115 289.633 236.234 290.123 236.542 290.368C236.669 290.494 236.851 290.55 236.969 290.55C237.214 290.55 237.459 290.423 237.641 290.178C240.037 286.865 242.489 283.552 244.94 280.302C245.201 279.993 245.138 279.503 244.829 279.258ZM230.232 299.137C229.86 298.892 229.37 298.955 229.125 299.319C226.792 302.632 224.404 305.945 222.008 309.377C221.763 309.686 221.882 310.176 222.19 310.421C222.372 310.548 222.499 310.548 222.681 310.548C222.862 310.548 223.108 310.484 223.297 310.239C225.63 306.863 228.018 303.494 230.414 300.181C230.659 299.809 230.533 299.382 230.232 299.137ZM696.753 307.907C695.836 304.838 694.855 301.834 693.867 298.892C693.74 298.465 693.25 298.275 692.887 298.402C692.46 298.584 692.27 299.019 692.396 299.382C693.559 302.759 694.666 306.191 695.709 309.686C695.836 310.176 696.018 310.603 696.136 311.093C696.263 311.465 696.563 311.647 696.872 311.647H697.117C697.489 311.52 697.734 311.093 697.607 310.666C697.37 309.749 697.062 308.824 696.753 307.907ZM216.062 319.317C215.754 319.072 215.263 319.135 215.018 319.499L214.71 319.926C212.44 323.302 210.108 326.734 207.902 330.174C207.656 330.545 207.72 331.036 208.083 331.281C208.21 331.344 208.392 331.407 208.51 331.407C208.756 331.407 209.001 331.281 209.127 331.036C211.397 327.604 213.666 324.164 215.999 320.788L216.307 320.361C216.489 320.052 216.426 319.562 216.062 319.317ZM703.38 334.286H703.316C702.644 330.419 701.719 326.56 700.802 322.63C700.739 322.203 700.312 321.958 699.885 322.077C699.513 322.14 699.212 322.567 699.331 322.994C700.248 326.734 701.047 330.474 701.782 334.222C701.846 334.468 701.909 334.776 701.964 335.021C702.027 335.393 702.336 335.638 702.7 335.638C702.763 335.638 702.763 335.638 702.826 335.638C703.253 335.511 703.498 335.148 703.443 334.721C703.443 334.594 703.38 334.404 703.38 334.286ZM202.256 340.359C201.947 340.113 201.457 340.232 201.212 340.604C199.061 344.099 196.918 347.594 194.831 351.152C194.586 351.524 194.704 351.951 195.076 352.196C195.202 352.259 195.321 352.322 195.447 352.322C195.756 352.322 196.001 352.196 196.12 351.951C198.207 348.392 200.35 344.897 202.501 341.402C202.746 341.031 202.627 340.604 202.256 340.359ZM705.467 346.922C705.404 346.495 705.04 346.186 704.605 346.305C704.178 346.368 703.933 346.732 703.988 347.167C704.542 351.215 705.032 355.327 705.396 359.376C705.459 359.803 705.768 360.048 706.195 360.048C706.195 360.048 706.195 360.048 706.258 360.048C706.685 360.048 706.993 359.676 706.93 359.249C706.574 355.145 706.084 351.034 705.467 346.922ZM189.683 361.519C189.311 361.337 188.821 361.455 188.639 361.827C186.552 365.449 184.591 369.126 182.685 372.684C182.503 373.056 182.622 373.483 182.993 373.665C183.12 373.728 183.238 373.791 183.365 373.791C183.61 373.791 183.918 373.665 184.037 373.364C185.935 369.869 187.904 366.184 189.991 362.57C190.173 362.199 190.047 361.764 189.683 361.519ZM707.8 371.585C707.8 371.158 707.428 370.849 707.001 370.849C706.574 370.849 706.266 371.221 706.266 371.648C706.448 375.697 706.574 379.809 706.574 383.92C706.574 384.347 706.946 384.719 707.31 384.719C707.737 384.719 708.108 384.347 708.108 383.92C708.108 379.801 707.982 375.633 707.8 371.585ZM178.027 383.296C177.656 383.114 177.165 383.232 176.984 383.604C175.141 387.281 173.307 391.029 171.583 394.706C171.401 395.133 171.583 395.568 171.955 395.75C172.081 395.813 172.136 395.813 172.263 395.813C172.571 395.813 172.816 395.687 172.935 395.386C174.714 391.709 176.557 387.961 178.391 384.347C178.573 383.913 178.391 383.486 178.027 383.296ZM707.065 395.449C706.693 395.513 706.329 395.758 706.266 396.185C706.084 400.297 705.839 404.409 705.467 408.457C705.404 408.884 705.712 409.256 706.139 409.319H706.203C706.574 409.319 706.938 409.011 706.938 408.584C707.365 404.535 707.61 400.423 707.8 396.256C707.863 395.876 707.491 395.505 707.065 395.449ZM167.408 405.571C167.036 405.389 166.609 405.571 166.427 405.998C164.775 409.738 163.114 413.542 161.58 417.345C161.453 417.717 161.643 418.207 162.007 418.326C162.134 418.389 162.189 418.389 162.315 418.389C162.624 418.389 162.869 418.207 162.988 417.899C164.522 414.158 166.174 410.355 167.835 406.615C168.025 406.18 167.843 405.753 167.408 405.571ZM704.914 419.986C704.542 419.923 704.115 420.231 704.052 420.658C703.498 424.707 702.826 428.755 702.091 432.804C702.027 433.231 702.273 433.603 702.708 433.721C702.771 433.721 702.771 433.721 702.834 433.721C703.206 433.721 703.506 433.476 703.633 433.104C704.368 428.993 705.04 424.881 705.594 420.895C705.594 420.476 705.341 420.041 704.914 419.986ZM158.085 428.384C157.658 428.257 157.223 428.447 157.104 428.811C155.634 432.678 154.218 436.6 152.929 440.466C152.747 440.838 152.993 441.265 153.356 441.447H153.601C153.973 441.447 154.218 441.265 154.337 440.957C155.689 437.09 157.096 433.168 158.512 429.364C158.638 429.001 158.457 428.51 158.085 428.384ZM700.501 444.278C700.074 444.151 699.703 444.46 699.584 444.831C698.722 448.761 697.686 452.747 696.579 456.795C696.516 457.167 696.706 457.594 697.133 457.712C697.196 457.712 697.259 457.776 697.315 457.776C697.686 457.776 697.987 457.531 698.05 457.159C699.157 453.174 700.201 449.125 701.118 445.195C701.173 444.768 700.928 444.341 700.501 444.278ZM150.051 451.695C149.679 451.568 149.252 451.821 149.134 452.248C147.908 456.178 146.738 460.164 145.702 464.086C145.639 464.513 145.884 464.948 146.255 465.003C146.319 465.066 146.382 465.066 146.501 465.066C146.809 465.066 147.117 464.821 147.236 464.513C148.216 460.583 149.387 456.597 150.612 452.675C150.723 452.248 150.478 451.821 150.051 451.695ZM693.994 468.016C693.567 467.889 693.132 468.079 693.013 468.506C691.724 472.246 690.19 476.113 688.537 479.916C688.356 480.343 688.537 480.778 688.964 480.96C689.028 480.96 689.146 481.023 689.273 481.023C689.518 481.023 689.826 480.842 689.945 480.533C691.598 476.666 693.132 472.808 694.421 469.004C694.61 468.632 694.365 468.198 693.994 468.016ZM143.67 475.504C143.243 475.441 142.871 475.686 142.752 476.121C141.891 480.169 141.037 484.218 140.301 488.203C140.238 488.63 140.546 489.002 140.918 489.121H141.1C141.471 489.121 141.772 488.875 141.835 488.504C142.571 484.519 143.369 480.47 144.286 476.421C144.35 475.994 144.097 475.623 143.67 475.504ZM684.307 490.655C683.935 490.528 683.508 490.655 683.263 491.026C681.484 494.521 679.46 498.143 677.309 501.701C677.064 502.073 677.182 502.563 677.554 502.808C677.681 502.872 677.799 502.872 677.926 502.872C678.234 502.872 678.479 502.745 678.598 502.5C680.804 498.878 682.828 495.265 684.671 491.706C684.853 491.327 684.671 490.837 684.307 490.655ZM139.257 499.796C138.767 499.669 138.459 499.977 138.395 500.412C137.842 504.588 137.415 508.691 137.043 512.74C137.043 513.167 137.352 513.539 137.779 513.539C137.779 513.539 137.779 513.539 137.842 513.539C138.214 513.539 138.577 513.23 138.577 512.867C138.949 508.818 139.376 504.706 139.93 500.658C139.993 500.223 139.684 499.796 139.257 499.796ZM671.726 511.878C671.355 511.633 670.928 511.696 670.682 512.06C668.413 515.373 665.962 518.75 663.503 522C663.194 522.371 663.321 522.861 663.629 523.107C663.756 523.17 663.938 523.233 664.119 523.233C664.301 523.233 664.546 523.17 664.736 522.925C667.187 519.675 669.647 516.298 671.916 512.922C672.153 512.55 672.098 512.06 671.726 511.878ZM137.842 530.587C137.842 528.808 137.842 526.965 137.905 525.131C137.905 524.704 137.597 524.332 137.17 524.332C136.743 524.332 136.371 524.641 136.371 525.068C136.308 526.91 136.308 528.745 136.308 530.587C136.308 532.92 136.371 535.189 136.434 537.459C136.434 537.83 136.806 538.194 137.17 538.194C137.233 538.194 137.233 538.194 137.233 538.194C137.66 538.131 137.968 537.822 137.968 537.395C137.905 535.126 137.842 532.856 137.842 530.587ZM656.884 531.512C656.576 531.204 656.085 531.267 655.777 531.575C653.263 534.644 650.503 537.775 647.68 540.835C647.371 541.143 647.435 541.634 647.743 541.942C647.87 542.069 648.052 542.124 648.233 542.124C648.479 542.124 648.66 541.997 648.787 541.879C651.673 538.748 654.433 535.624 657.011 532.556C657.248 532.248 657.192 531.757 656.884 531.512ZM640.255 549.731C639.946 549.423 639.456 549.423 639.148 549.731C636.325 552.554 633.32 555.432 630.315 558.255C630.007 558.5 629.944 558.99 630.252 559.299C630.378 559.481 630.624 559.544 630.805 559.544C630.987 559.544 631.177 559.481 631.359 559.362C634.364 556.539 637.369 553.661 640.255 550.775C640.563 550.466 640.563 549.976 640.255 549.731ZM138.767 549.604C138.767 549.233 138.395 548.869 137.968 548.932C137.541 548.995 137.233 549.359 137.296 549.794C137.723 553.969 138.277 558.073 138.949 562.066C139.012 562.438 139.376 562.683 139.748 562.683C139.748 562.683 139.811 562.683 139.874 562.683C140.301 562.62 140.546 562.256 140.491 561.821C139.803 557.828 139.194 553.779 138.767 549.604ZM622.226 566.479C621.918 566.17 621.427 566.17 621.119 566.415C618.114 568.993 614.983 571.626 611.67 574.331C611.361 574.576 611.298 575.066 611.543 575.375C611.725 575.556 611.915 575.683 612.16 575.683C612.342 575.683 612.468 575.62 612.65 575.501C615.963 572.86 619.15 570.164 622.099 567.586C622.471 567.269 622.471 566.843 622.226 566.479ZM143.116 573.777C142.99 573.35 142.563 573.105 142.136 573.224C141.764 573.35 141.519 573.777 141.582 574.141C142.689 578.19 143.915 582.175 145.259 585.978C145.386 586.35 145.631 586.532 145.994 586.532C146.058 586.532 146.121 586.532 146.24 586.469C146.611 586.342 146.856 585.915 146.667 585.488C145.33 581.685 144.16 577.763 143.116 573.777ZM603.019 582.056C602.774 581.685 602.283 581.629 601.975 581.874C598.725 584.326 595.349 586.785 592.035 589.173C591.664 589.418 591.608 589.845 591.854 590.217C592.035 590.399 592.225 590.525 592.47 590.525C592.652 590.525 592.779 590.525 592.961 590.399C596.274 588.003 599.65 585.551 602.9 583.1C603.264 582.855 603.327 582.365 603.019 582.056ZM583.021 596.535C583.021 596.472 582.958 596.408 582.958 596.353C582.713 595.981 582.222 595.926 581.914 596.108C581.669 596.234 581.487 596.416 581.242 596.535C579.526 597.697 577.684 598.931 575.904 600.03C574.497 601.01 573.018 601.928 571.611 602.853C571.239 603.035 571.12 603.525 571.366 603.897C571.492 604.142 571.737 604.268 571.982 604.268C572.109 604.268 572.291 604.205 572.409 604.142C574.56 602.79 576.64 601.445 578.727 600.03C580.079 599.168 581.424 598.314 582.776 597.389C583.021 597.207 583.148 596.843 583.021 596.535ZM156.986 607.7C154.898 604.205 153 600.52 151.34 596.843C151.158 596.472 150.668 596.29 150.296 596.472C149.924 596.653 149.743 597.088 149.924 597.515C151.64 601.192 153.546 604.94 155.626 608.499C155.752 608.744 155.997 608.87 156.298 608.87C156.424 608.87 156.543 608.807 156.669 608.744C157.041 608.554 157.168 608.064 156.986 607.7ZM562.106 609.542C561.924 609.171 561.434 609.052 561.062 609.234C560.39 609.606 559.773 610.033 559.101 610.396C556.278 612.112 553.4 613.773 550.387 615.426C550.015 615.607 549.897 616.098 550.142 616.469C550.269 616.714 550.514 616.841 550.814 616.841C550.941 616.841 551.059 616.841 551.186 616.778C554.807 614.69 558.421 612.603 561.861 610.578C561.924 610.515 561.987 610.452 562.043 610.396C562.288 610.151 562.288 609.843 562.106 609.542ZM540.637 621.625C540.455 621.253 539.965 621.135 539.594 621.317C536.098 623.214 532.358 625.12 528.673 626.963C528.302 627.144 528.183 627.516 528.302 627.824C528.238 627.888 528.302 627.951 528.302 628.006C528.428 628.251 528.729 628.433 528.974 628.433C529.1 628.433 529.219 628.37 529.346 628.307C529.654 628.125 530.018 627.998 530.326 627.817C533.758 626.164 537.071 624.385 540.329 622.661C540.693 622.479 540.819 621.989 540.637 621.625ZM171.211 627.571C168.515 624.503 165.937 621.253 163.604 618.003C163.359 617.632 162.869 617.576 162.497 617.822C162.189 618.067 162.126 618.557 162.371 618.865C164.522 621.933 166.91 624.938 169.361 627.824C169.606 628.07 169.788 628.378 170.033 628.623C170.16 628.75 170.405 628.868 170.587 628.868C170.768 628.868 170.958 628.805 171.14 628.686C171.385 628.441 171.448 628.133 171.322 627.824C171.338 627.698 171.274 627.635 171.211 627.571ZM518.607 632.727C518.425 632.3 517.935 632.174 517.564 632.355C514.005 634.008 510.384 635.732 506.335 637.511C505.963 637.637 505.781 638.128 505.963 638.492C506.09 638.8 506.39 638.982 506.635 638.982C506.762 638.982 506.881 638.919 506.944 638.855C510.992 637.076 514.669 635.423 518.228 633.7C518.607 633.526 518.797 633.099 518.607 632.727ZM188.884 644.509C187.477 643.402 186.061 642.24 184.772 641.133C182.993 639.599 181.341 638.001 179.68 636.467C179.372 636.159 178.881 636.159 178.573 636.467C178.265 636.776 178.265 637.266 178.573 637.574C180.534 639.417 182.558 641.251 184.709 643.03C185.753 643.948 186.797 644.873 187.896 645.727C188.022 645.853 188.204 645.909 188.386 645.909C188.631 645.909 188.813 645.782 189.003 645.6C189.248 645.3 189.193 644.81 188.884 644.509ZM496.04 642.785C495.858 642.358 495.423 642.168 495.059 642.358C491.319 643.892 487.452 645.49 483.585 646.96C483.214 647.142 483.032 647.577 483.158 648.004C483.285 648.313 483.585 648.494 483.894 648.494C483.957 648.494 484.076 648.431 484.202 648.431C488.069 646.897 491.928 645.3 495.613 643.766C496.04 643.584 496.221 643.157 496.04 642.785ZM472.112 651.373C468.245 652.78 464.323 654.132 460.52 655.485C460.092 655.611 459.903 656.038 460.029 656.402C460.156 656.773 460.401 656.955 460.765 656.955C460.828 656.955 460.891 656.955 461.01 656.892C464.876 655.603 468.735 654.196 472.602 652.78C473.029 652.654 473.219 652.227 473.092 651.8C472.91 651.373 472.42 651.191 472.112 651.373ZM209.064 658.371L208.637 658.062C205.205 656.101 201.892 654.014 198.697 651.808C198.389 651.562 197.899 651.681 197.654 652.053C197.408 652.361 197.527 652.851 197.835 653.097C201.022 655.247 204.399 657.39 207.838 659.415L208.329 659.723C208.455 659.786 208.574 659.786 208.7 659.786C209.009 659.786 209.254 659.66 209.372 659.415C209.617 659.043 209.436 658.553 209.064 658.371ZM448.801 659.288C448.002 659.533 447.203 659.842 446.349 660.087C443.345 661.004 440.213 661.984 437.09 662.91C436.663 663.036 436.418 663.4 436.536 663.827C436.663 664.199 436.963 664.38 437.272 664.38H437.517C440.585 663.463 443.716 662.538 446.658 661.621C447.575 661.312 448.437 661.067 449.299 660.759C449.671 660.632 449.916 660.205 449.789 659.778C449.663 659.415 449.228 659.169 448.801 659.288ZM231.268 668.737C229.916 668.247 228.627 667.757 227.283 667.203C224.768 666.223 222.372 665.116 219.984 664.017C219.612 663.835 219.122 664.017 218.94 664.388C218.758 664.76 218.94 665.25 219.312 665.432C221.89 666.658 224.586 667.765 227.291 668.864C228.398 669.354 229.56 669.781 230.722 670.216H231.031C231.339 670.216 231.648 670.034 231.766 669.726C231.885 669.346 231.703 668.919 231.268 668.737ZM425.181 666.16C421.315 667.203 417.329 668.247 413.281 669.228C412.854 669.354 412.609 669.718 412.727 670.145C412.79 670.516 413.099 670.762 413.462 670.762C413.526 670.762 413.589 670.762 413.644 670.698C417.693 669.718 421.742 668.674 425.608 667.694C425.98 667.567 426.225 667.14 426.162 666.713C426.043 666.341 425.608 666.096 425.181 666.16ZM401.261 671.987C397.276 672.849 393.164 673.703 389.297 674.439H389.171C388.744 674.502 388.499 674.866 388.554 675.3C388.617 675.672 388.981 675.917 389.353 675.917C389.353 675.917 389.416 675.917 389.479 675.917C392.239 675.427 395.062 674.873 397.885 674.265C399.111 674.019 400.336 673.774 401.562 673.466C401.989 673.403 402.234 672.976 402.179 672.549C402.052 672.169 401.688 671.869 401.261 671.987ZM254.824 675.727C250.776 674.81 246.79 673.766 242.923 672.659C242.496 672.533 242.062 672.723 241.943 673.15C241.816 673.577 242.069 674.012 242.496 674.13C246.237 675.174 250.04 676.218 253.907 677.135C254.089 677.198 254.279 677.198 254.46 677.262H254.642C254.769 677.262 254.887 677.198 255.014 677.135L255.077 677.072C255.259 677.008 255.322 676.827 255.386 676.645C255.441 676.281 255.196 675.854 254.824 675.727ZM377.088 676.589C372.913 677.206 368.865 677.815 364.879 678.369C364.452 678.432 364.144 678.796 364.207 679.23C364.271 679.602 364.634 679.903 365.006 679.903H365.069C369.055 679.349 373.166 678.74 377.341 678.06C377.713 677.997 378.014 677.633 377.958 677.198C377.903 676.763 377.515 676.526 377.088 676.589ZM278.997 679.903C274.948 679.476 270.837 678.859 266.851 678.187C266.424 678.123 266.053 678.369 265.934 678.803C265.871 679.23 266.179 679.602 266.606 679.665C270.591 680.401 274.703 680.954 278.815 681.445C278.878 681.445 278.878 681.445 278.942 681.445C279.313 681.445 279.614 681.199 279.677 680.772C279.74 680.345 279.424 679.966 278.997 679.903ZM352.67 679.839C348.559 680.266 344.447 680.638 340.398 680.946C339.971 680.946 339.663 681.318 339.663 681.745C339.726 682.172 340.034 682.48 340.461 682.48C340.461 682.48 340.461 682.48 340.525 682.48C344.573 682.172 348.685 681.808 352.797 681.373C353.224 681.31 353.532 680.946 353.532 680.511C353.469 680.084 353.105 679.776 352.67 679.839ZM303.534 681.745C299.359 681.618 295.191 681.373 291.261 681.128C290.708 681.065 290.463 681.373 290.4 681.8C290.4 682.227 290.708 682.599 291.135 682.662C295.12 682.907 299.295 683.153 303.463 683.279C303.89 683.279 304.261 682.971 304.261 682.544C304.269 682.109 303.969 681.745 303.534 681.745ZM328.134 681.618C324.022 681.8 319.855 681.927 315.806 681.927C315.379 681.927 315.071 682.299 315.071 682.726C315.071 683.097 315.379 683.461 315.806 683.461C319.918 683.461 324.03 683.334 328.197 683.153C328.624 683.153 328.932 682.781 328.932 682.354C328.869 681.99 328.505 681.618 328.134 681.618Z" fill="#D8D5DB"/>
<path d="M477.022 284.414L517.508 354.529L529.037 374.526L535.782 386.182L579.645 462.125L595.412 489.484L611.243 462.125L684.426 335.322L687.003 330.901L707.001 296.306L712.521 286.675L713.011 285.876L713.873 284.406H477.022V284.414ZM704.732 294.045L696.753 307.907L695.71 309.686L684.18 329.62L681.666 334.041L607.684 462.125L595.412 483.348L583.14 462.125L539.285 386.182L532.54 374.526L517.508 348.456L482.296 287.482H708.535L704.732 294.045Z" fill="white"/>
<path d="M533.394 579.146C529.021 576.529 530.294 576.197 525.352 577.106C520.015 578.095 508.525 583.598 502.721 588.193C502.658 588.185 502.619 588.153 502.555 588.145C476.247 583.638 471.622 565.032 460.994 556.215C455.103 517.595 425.387 412.482 425.387 412.482L380.631 429.119C387.155 473.401 413.399 557.63 420.208 576.632C421.33 578.933 422.762 580.76 424.383 582.246C426.613 586.975 430.63 591.514 437.114 595.262C463.943 610.784 489.342 610.99 499.06 610.373C499.377 610.689 499.732 610.958 500.136 611.179C506.722 614.777 533.718 618.296 540.028 616.232C546.433 614.137 559.568 600.844 558.627 597.167C557.085 591.158 544.362 585.71 533.394 579.146Z" fill="white"/>
<path d="M385.233 384.086C372.597 412.49 377.239 502.492 377.239 502.492L458.005 483.245C457.997 483.245 418.555 309.164 385.233 384.086Z" fill="#6DB8E2"/>
<path d="M453.585 722.658C439.597 729.648 425.608 735.911 411.81 741.304C339.789 769.826 272.742 776.515 226.484 748.238C227.156 721.677 228.081 694.009 228.817 681.437C228.943 679.966 229.062 678.677 229.125 677.633L253.907 677.143H255.014L255.077 677.08L389.179 674.439H389.305L397.893 674.257L406.48 674.075L446.112 673.276C446.539 675.119 446.974 677.08 447.338 679.041C449.908 691.558 451.932 706.59 453.585 722.658Z" fill="#273C8A"/>
<path d="M325.904 346.036C277.724 347.625 261.435 363.891 253.132 392.018C243.698 423.956 227.085 616.849 227.085 681.302C227.085 681.302 371.277 691.519 451.149 678.424C426.106 593.823 423.394 441.716 422.896 396.398C422.517 362.389 386.981 344.02 325.904 346.036Z" fill="#7BD0FF"/>
<path d="M368.351 267.16C373.095 263.586 397.853 266.828 390.721 216.418C388.119 198.033 370.85 210.305 358.625 212.757C346.4 215.208 354.173 268.069 354.173 268.069L368.351 267.16Z" fill="#232323"/>
<path d="M306.705 255.085C308.761 268.449 312.872 340.73 311.157 357.518C309.441 374.305 390.642 379.097 380.014 360.601C369.395 342.098 376.93 280.776 376.93 280.776L306.705 255.085Z" fill="white"/>
<path d="M312.327 257.125L376.93 280.784C376.93 280.784 372.565 316.502 375.199 341.647C325.943 337.836 313.299 275.621 312.469 263.641C312.327 261.387 312.256 259.205 312.327 257.125Z" fill="#263238"/>
<path d="M397.671 252.808C403.657 294.069 413.826 335.219 363.804 328.45C313.782 321.673 306.009 257.544 306.151 245.446C306.926 180.89 385.897 171.67 397.671 252.808Z" fill="white"/>
<path d="M392.334 206.731C380.56 193.059 314.375 187.904 303.423 200.002C302.221 196.199 304.672 191.533 304.704 191.486L302 190.031C301.873 190.268 298.884 195.906 300.505 200.967C300.561 201.133 300.695 201.244 300.75 201.402C288.636 204.066 296.37 256.674 296.37 256.674L310.548 255.765C315.292 252.191 331.747 227.061 335.377 211.887C361.297 216.275 407.295 224.104 392.334 206.731Z" fill="#232323"/>
<path d="M385.296 580.601C380.228 580.886 360.57 584.302 353.667 582.697C330.474 577.28 270.694 550.474 238.519 535.482C258.311 492.513 287.458 416.459 287.458 416.459L241.642 403.017C220.379 442.404 191.011 525.597 185.097 544.899C184.765 546.631 184.741 548.252 184.844 549.818C184.63 557.449 188.133 565.253 197.314 570.844C222.783 586.366 318.874 601.414 345.475 604.355C345.965 605.352 346.613 606.245 347.673 606.846C354.181 610.499 383.802 613.243 389.891 614.319C397.529 615.671 420.714 617.632 419.709 614.524C418.08 609.432 409.485 579.241 385.296 580.601Z" fill="white"/>
<path d="M269.137 363.448C243.295 380.718 199.172 459.302 199.172 459.302L277.74 486.139C277.74 486.132 337.314 317.878 269.137 363.448Z" fill="#6DB8E2"/>
<path d="M355.549 250.768C355.391 252.776 356.474 254.508 357.984 254.626C359.487 254.745 360.839 253.219 361.005 251.21C361.163 249.202 360.08 247.47 358.569 247.352C357.059 247.225 355.707 248.759 355.549 250.768Z" fill="#232323"/>
<path d="M387.416 251.614C387.257 253.622 388.341 255.354 389.851 255.473C391.353 255.591 392.706 254.065 392.872 252.057C393.03 250.048 391.946 248.316 390.436 248.198C388.926 248.071 387.574 249.605 387.416 251.614Z" fill="#232323"/>
<path d="M347.712 239.476L345.143 237.799C350.567 229.497 359.668 231.418 360.056 231.513L359.392 234.51C359.091 234.439 351.951 232.984 347.712 239.476Z" fill="#232323"/>
<path d="M395.948 243.303C392.706 236.242 385.415 236.629 385.122 236.661L384.909 233.601C385.304 233.569 394.595 233 398.731 242.022L395.948 243.303Z" fill="#232323"/>
<path d="M365.789 288.763C360.609 288.763 350.638 287.292 344.447 276.996L347.08 275.415C354.584 287.893 368.042 285.616 368.612 285.513L369.165 288.525C369.118 288.533 367.821 288.763 365.789 288.763Z" fill="#232323"/>
<path d="M389.369 274.79L374.479 274.585L374.519 271.517L385.265 271.667L378.63 249.044L381.572 248.182L389.369 274.79Z" fill="#263238"/>
<path d="M318.835 260.336C323.35 270.52 329.011 280.373 314.826 282.2C300.64 284.034 294.037 268.101 293.23 264.977C288.945 248.332 309.955 240.314 318.835 260.336Z" fill="white"/>
<path d="M702.984 627.801H115.986C111.194 627.801 107.272 623.879 107.272 619.087C107.272 614.295 111.194 610.373 115.986 610.373H702.984C707.776 610.373 711.698 614.295 711.698 619.087C711.69 623.879 707.776 627.801 702.984 627.801Z" fill="white"/>
<path d="M333.218 627.801H111.629C106.837 627.801 102.915 623.879 102.915 619.087C102.915 614.295 106.837 610.373 111.629 610.373H333.218C338.01 610.373 341.932 614.295 341.932 619.087C341.932 623.879 338.01 627.801 333.218 627.801Z" fill="#D8D5DB"/>
<path d="M674.241 596.543H492.157C485.199 596.543 480.588 590.905 481.854 583.946L501.717 474.737C502.982 467.778 509.648 462.141 516.607 462.141H698.691C705.649 462.141 710.259 467.778 708.994 474.737L689.13 583.946C687.865 590.905 681.199 596.543 674.241 596.543Z" fill="#273C8A"/>
<path d="M678.693 596.543H496.609C489.65 596.543 485.04 590.905 486.306 583.946L506.169 474.737C507.434 467.778 514.1 462.141 521.059 462.141H703.142C710.101 462.141 714.711 467.778 713.446 474.737L693.582 583.946C692.317 590.905 685.651 596.543 678.693 596.543Z" fill="#273C8A"/>
<path d="M579.281 504.208L570.14 554.507H620.439L629.643 504.208H579.281ZM617.924 551.447H573.817L581.851 507.276H625.958L617.924 551.447Z" fill="white"/>
<path d="M460.227 600.038C460.227 605.723 464.884 610.381 470.57 610.381H661.051C666.737 610.381 671.394 605.723 671.394 600.038H460.227Z" fill="#273C8A"/>
<path d="M404.883 600.038C404.883 605.723 409.54 610.381 415.226 610.381H490.133C495.818 610.381 500.476 605.723 500.476 600.038H404.883Z" fill="#273C8A"/>
<path d="M614.105 261.134C607.653 261.134 602.426 266.361 602.426 272.813H625.784C625.784 266.361 620.558 261.134 614.105 261.134Z" fill="#377ADB"/>
<path d="M614.121 261.134V374.534C614.121 380.995 608.878 386.182 602.418 386.182H517.508V272.837C517.508 266.377 522.751 261.134 529.156 261.134H614.121Z" fill="#273C8A"/>
<path d="M590.77 374.534L505.821 374.519C505.821 380.971 511.048 386.198 517.5 386.198L602.418 386.182C595.958 386.19 590.77 380.995 590.77 374.534Z" fill="#6EA9FF"/>
<path d="M601.43 277.115H530.208V280.183H601.43V277.115Z" fill="white"/>
<path d="M601.43 288.731H530.208V291.799H601.43V288.731Z" fill="white"/>
<path d="M601.43 300.355H530.208V303.423H601.43V300.355Z" fill="white"/>
<path d="M601.43 311.971H530.208V315.039H601.43V311.971Z" fill="white"/>
<path d="M601.43 323.587H530.208V326.655H601.43V323.587Z" fill="white"/>
<path d="M601.43 335.203H530.208V338.271H601.43V335.203Z" fill="white"/>
<path d="M601.43 346.819H530.208V349.887H601.43V346.819Z" fill="white"/>
<path d="M601.43 358.443H530.208V361.511H601.43V358.443Z" fill="white"/>
<path d="M703.348 334.262C726.345 334.262 744.989 315.619 744.989 292.622C744.989 269.624 726.345 250.981 703.348 250.981C680.351 250.981 661.708 269.624 661.708 292.622C661.708 315.619 680.351 334.262 703.348 334.262Z" fill="#FFC84D"/>
<path d="M703.348 292.622L736.433 325.706C718.285 343.854 688.411 343.854 670.264 325.706C662.491 317.933 657.699 307.654 656.734 296.702L703.348 292.622Z" fill="#232323"/>
<path d="M703.348 292.622L656.876 298.038C656.267 292.788 656.544 287.474 657.706 282.318C658.869 277.163 660.893 272.244 663.7 267.769L703.348 292.622Z" fill="white"/>
<path d="M506.746 232.391H457.048C456.463 232.391 455.981 231.908 455.981 231.323V181.625C455.981 181.04 456.463 180.558 457.048 180.558H506.746C507.331 180.558 507.814 181.04 507.814 181.625V231.323C507.814 231.908 507.339 232.391 506.746 232.391Z" fill="#232323"/>
<path d="M496.435 242.702H446.737C446.152 242.702 445.669 242.22 445.669 241.635V191.936C445.669 191.351 446.152 190.869 446.737 190.869H496.435C497.02 190.869 497.502 191.351 497.502 191.936V241.635C497.502 242.22 497.028 242.702 496.435 242.702Z" fill="#F35A59"/>
</svg>
